<?xml version="1.0" encoding="UTF-8" standalone="no"?>
<!-- Generator: Adobe Illustrator 15.1.0, SVG Export Plug-In . SVG Version: 6.00 Build 0)  -->

<svg
   xmlns:dc="http://purl.org/dc/elements/1.1/"
   xmlns:cc="http://creativecommons.org/ns#"
   xmlns:rdf="http://www.w3.org/1999/02/22-rdf-syntax-ns#"
   xmlns:svg="http://www.w3.org/2000/svg"
   xmlns="http://www.w3.org/2000/svg"
   xmlns:xlink="http://www.w3.org/1999/xlink"
   xmlns:sodipodi="http://sodipodi.sourceforge.net/DTD/sodipodi-0.dtd"
   xmlns:inkscape="http://www.inkscape.org/namespaces/inkscape"
   version="1.1"
   id="Layer_1"
   x="0px"
   y="0px"
   width="577.6px"
   height="990.1px"
   viewBox="0 0 577.6 990.1"
   style="enable-background:new 0 0 577.6 990.1;"
   xml:space="preserve"
   inkscape:version="0.91 r13725"
   sodipodi:docname="m+m_logo.svg"><metadata
     id="metadata59"><rdf:RDF><cc:Work
         rdf:about=""><dc:format>image/svg+xml</dc:format><dc:type
           rdf:resource="http://purl.org/dc/dcmitype/StillImage" /></cc:Work></rdf:RDF></metadata><defs
     id="defs57"><clipPath
       id="SVGID_2_-7"><use
         xlink:href="#SVGID_1_"
         style="overflow:visible;"
         id="use23-4" /></clipPath><defs
       id="defs19"><rect
         y="0"
         x="0"
         height="990.09998"
         width="577.59998"
         id="SVGID_1_" /></defs><clipPath
       id="SVGID_2_"><use
         height="100%"
         width="100%"
         y="0"
         x="0"
         id="use23"
         style="overflow:visible"
         xlink:href="#SVGID_1_" /></clipPath></defs><sodipodi:namedview
     pagecolor="#ffffff"
     bordercolor="#666666"
     borderopacity="1"
     objecttolerance="10"
     gridtolerance="10"
     guidetolerance="10"
     inkscape:pageopacity="0"
     inkscape:pageshadow="2"
     inkscape:window-width="1920"
     inkscape:window-height="1027"
     id="namedview55"
     showgrid="false"
     inkscape:zoom="0.47671953"
     inkscape:cx="-436.35385"
     inkscape:cy="206.68774"
     inkscape:window-x="-4"
     inkscape:window-y="-4"
     inkscape:window-maximized="1"
     inkscape:current-layer="Layer_1" /><style
     type="text/css"
     id="style3"><![CDATA[
	.st0{fill:#63676C;}
	.st1{fill:#CCD3B0;}
	.st2{clip-path:url(#SVGID_2_);fill:#FFFFFF;}
	.st3{clip-path:url(#SVGID_2_);fill:#63676C;}
]]></style><polygon
     class="st1"
     points="274.7,34.8 216.4,0 217.4,2.1 233.2,96.2 265.5,133.8 265.5,892.6 218.7,892.6 275,990.1 331.3,892.6   284.1,892.6 284.1,134.6 316.9,96.2 333.7,0 "
     id="polygon5" /><polygon
     class="st0"
     points="0.4,781.3 257.6,841.5 257.6,834.6 7.1,776 7.1,626 488.2,732.1 425.4,790.8 421.9,794.1 423.9,798.5   463.4,882.7 291,842.4 291,849.3 475.3,892.4 430,795.7 502,728.3 0.4,617.7 "
     id="polygon7" /><polygon
     class="st0"
     points="148.1,150.8 76,218.2 577.6,328.8 577.6,165.2 320.5,105.1 315.6,110.9 570.9,170.5 570.9,320.5   89.8,214.4 152.6,155.7 156.2,152.4 154.1,148 114.6,63.8 223.3,89.3 222.1,82 102.7,54.1 "
     id="polygon9" /><polygon
     class="st0"
     points="0,327.3 0,491.1 577.6,327.3 577.6,163.4 "
     id="polygon11" /><polygon
     class="st0"
     points="0,618.5 0,782.4 577.6,618.5 577.6,454.7 "
     id="polygon13" /><path
     class="st0"
     d="M6.7,485.1V334.9L570.9,460V610L6.7,485.1z M0,490.5l577.6,127.8V454.7L0,326.6V490.5z"
     id="path15" /><path
     style="fill:#63676c"
     inkscape:connector-curvature="0"
     clip-path="url(#SVGID_2_)"
     id="path53"
     d="m 263.8,463.3 0,-21.2 c 0,-1.1 0.9,-2.1 2.1,-2.1 l 18,0 c 1.2,0 2.3,1.1 2.3,2.1 l 0,21.2 21.3,0 c 1.1,0.2 1.8,1.1 1.8,2.1 l 0,18.1 c 0,1.1 -0.8,1.8 -1.8,2 l 0,0.2 -21.3,0 0,21.3 -0.2,0 c -0.2,1.1 -0.9,2 -2.1,2 l -18,0 c -1.1,0 -2,-0.9 -2.1,-2 l 0,-21.3 -21.2,0 c -1.2,0 -2.1,-1.1 -2.1,-2.1 l 0,-18.1 c 0,-1.2 0.9,-2.1 2.1,-2.1 l 21.2,0 z"
     class="st3"
     transform="translate(18.354608,0)" /><text
     xml:space="preserve"
     style="font-style:normal;font-weight:normal;font-size:40px;line-height:125%;font-family:sans-serif;letter-spacing:0px;word-spacing:0px;fill:#ffffff;fill-opacity:1;stroke:none;stroke-width:1px;stroke-linecap:butt;stroke-linejoin:miter;stroke-opacity:1;"
     x="105.18434"
     y="763.00806"
     id="text3387"
     sodipodi:linespacing="125%"
     transform="matrix(1.0325487,-0.29192663,0.02336287,0.96187207,0,0)"><tspan
       sodipodi:role="line"
       id="tspan3389"
       x="105.18434"
       y="763.00806"
       style="font-style:normal;font-variant:normal;font-weight:bold;font-stretch:normal;font-size:112.5px;font-family:Liberator;-inkscape-font-specification:'Liberator Bold';letter-spacing:8px;word-spacing:0px;fill:#ffffff;"
       dx="0"
       rotate="0 0 0 0 0 0">EUGEN</tspan></text>
<text
     xml:space="preserve"
     style="font-style:normal;font-weight:normal;font-size:40px;line-height:125%;font-family:sans-serif;letter-spacing:0px;word-spacing:0px;fill:#ffffff;fill-opacity:1;stroke:none;stroke-width:1px;stroke-linecap:butt;stroke-linejoin:miter;stroke-opacity:1"
     x="113.2618"
     y="459.52957"
     id="text3387-2"
     sodipodi:linespacing="125%"
     transform="matrix(1.0325487,-0.29192663,0.02336287,0.96187207,0,0)"><tspan
       sodipodi:role="line"
       id="tspan3389-8"
       x="113.2618"
       y="459.52957"
       style="font-style:normal;font-variant:normal;font-weight:bold;font-stretch:normal;font-size:112.5px;font-family:Liberator;-inkscape-font-specification:'Liberator Bold';letter-spacing:8px;word-spacing:0px;fill:#ffffff"
       rotate="0 0 0 0 0 0">ALINA</tspan></text>
</svg>