<?xml version="1.0" encoding="UTF-8" standalone="no"?>
<!-- Generator: Adobe Illustrator 17.0.0, SVG Export Plug-In . SVG Version: 6.00 Build 0)  -->

<svg
   xmlns:osb="http://www.openswatchbook.org/uri/2009/osb"
   xmlns:dc="http://purl.org/dc/elements/1.1/"
   xmlns:cc="http://creativecommons.org/ns#"
   xmlns:rdf="http://www.w3.org/1999/02/22-rdf-syntax-ns#"
   xmlns:svg="http://www.w3.org/2000/svg"
   xmlns="http://www.w3.org/2000/svg"
   xmlns:xlink="http://www.w3.org/1999/xlink"
   xmlns:sodipodi="http://sodipodi.sourceforge.net/DTD/sodipodi-0.dtd"
   xmlns:inkscape="http://www.inkscape.org/namespaces/inkscape"
   version="1.1"
   id="Layer_1"
   x="0px"
   y="0px"
   width="1094px"
   height="209px"
   viewBox="0 0 1094 209"
   style="enable-background:new 0 0 1094 209;"
   xml:space="preserve"
   inkscape:version="0.48.5 r10040"
   sodipodi:docname="bride-groom.svg"><metadata
   id="metadata61"><rdf:RDF><cc:Work
       rdf:about=""><dc:format>image/svg+xml</dc:format><dc:type
         rdf:resource="http://purl.org/dc/dcmitype/StillImage" /></cc:Work></rdf:RDF></metadata><defs
   id="defs59"><linearGradient
   id="linearGradient3844"
   osb:paint="solid"><stop
     style="stop-color:#62676c;stop-opacity:1;"
     offset="0"
     id="stop3846" /></linearGradient>
	
	
</defs><sodipodi:namedview
   pagecolor="#ffffff"
   bordercolor="#666666"
   borderopacity="1"
   objecttolerance="10"
   gridtolerance="10"
   guidetolerance="10"
   inkscape:pageopacity="0"
   inkscape:pageshadow="2"
   inkscape:window-width="1680"
   inkscape:window-height="997"
   id="namedview57"
   showgrid="false"
   inkscape:zoom="0.34277879"
   inkscape:cx="179.19471"
   inkscape:cy="181.39326"
   inkscape:window-x="1276"
   inkscape:window-y="-4"
   inkscape:window-maximized="1"
   inkscape:current-layer="Layer_1" />
<style
   type="text/css"
   id="style3">
	.st0{fill:#62676C;}
	.st1{fill:#50555B;}
	.st2{fill:#393D42;}
	.st3{fill:none;stroke:#989CA3;stroke-width:3;stroke-linecap:round;stroke-linejoin:round;stroke-miterlimit:10;}
	.st4{fill:#FFF7E4;}
	.st5{fill:#FFFFFF;}
	.st6{fill:#E9EFD7;}
	.st7{fill:#E8ECD5;}
</style>
<g
   id="g7">
		<g
   id="g9">
			<path
   style="fill:#e9efd7"
   inkscape:connector-curvature="0"
   id="path11"
   d="m 1065.9,192.6 c -62.3,-9.6 -124.8,-17.6 -187.6,-24 3,-29.9 5.9,-59.8 8.9,-89.8 64.4,6.5 128.6,14.7 192.6,24.6 -12.5,14.2 -24.9,28.5 -37.2,42.9 7.9,15.5 15.6,30.9 23.3,46.3 z"
   class="st6" />
			<path
   style="fill:#ffffff"
   inkscape:connector-curvature="0"
   id="path13"
   d="m 1070.8,196.2 c -65,-10.2 -130.1,-18.5 -195.5,-25.1 3.1,-31.8 6.3,-63.5 9.4,-95.3 67.2,6.7 134.1,15.3 200.7,25.7 -13.3,15 -26.4,30 -39.4,45.2 8.4,16.5 16.6,33 24.8,49.5 z m -189.4,-30 c 60.1,6.1 119.9,13.8 179.6,22.9 -7.1,-14.4 -14.4,-28.8 -21.7,-43.1 11.6,-13.6 23.3,-27.1 35.1,-40.5 C 1013,96.1 951.6,88.3 889.9,82 c -2.9,28 -5.7,56.1 -8.5,84.2 z"
   class="st5" />
		</g>
		<g
   id="g15">
			<path
   style="fill:#e9efd7"
   inkscape:connector-curvature="0"
   id="path17"
   d="m 15.4,103.5 c 64,-9.9 128.2,-18.1 192.6,-24.6 3,29.9 5.9,59.8 8.9,89.8 -62.7,6.4 -125.2,14.3 -187.6,24 7.4,-17.4 14.8,-34.7 22.4,-51.9 -12,-12.6 -24.1,-24.9 -36.3,-37.3 z"
   class="st6" />
			<path
   style="fill:#ffffff"
   inkscape:connector-curvature="0"
   id="path19"
   d="m 220,171.2 c -65.3,6.6 -130.3,14.9 -195.2,25 7.7,-18.4 15.6,-36.7 23.6,-54.9 C 35.5,128 22.5,114.8 9.5,101.6 76.3,91.1 143.3,82.5 210.6,75.8 c 3.1,31.8 6.3,63.6 9.4,95.4 z M 33.9,189.1 c 59.8,-9.2 119.8,-16.8 179.9,-23 C 211,138 208.2,110 205.4,81.9 143.8,88.2 82.5,96 21.3,105.4 c 11.4,11.5 22.6,23 33.8,34.7 -7.1,16.3 -14.2,32.6 -21.2,49 z"
   class="st5" />
		</g>
		<g
   id="g21">
			<path
   style="fill:#e9efd7"
   inkscape:connector-curvature="0"
   id="path23"
   d="M 995.4,147.9 C 701.6,109.3 404.4,108.8 110.5,146.5 106.1,112.4 101.6,78.4 97.2,44.3 400,5.4 706.4,5.9 1009.1,45.8 c -4.6,34 -9.1,68.1 -13.7,102.1 z"
   class="st6" />
			<path
   style="fill:#ffffff"
   inkscape:connector-curvature="0"
   id="path25"
   d="M 997.9,151.1 C 702.5,112 403.6,111.5 108.1,149.7 103.4,113.8 98.7,77.9 94,42 399,2.6 707.5,3.1 1012.4,43.5 c -4.9,35.8 -9.7,71.7 -14.5,107.6 z M 113,143.4 c 292.3,-37.2 587.8,-36.8 880,1.4 4.3,-32.2 8.6,-64.4 12.8,-96.7 C 705.2,8.9 401.2,8.4 100.5,46.7 c 4.1,32.2 8.3,64.5 12.5,96.7 z"
   class="st5" />
		<path
   style="fill:none;stroke:none;stroke-width:1px;stroke-linecap:butt;stroke-linejoin:miter;stroke-opacity:1;fill-opacity:1"
   d="m 113.45764,141.95685 c 297.458,-32.63233 588.24398,-33.03368 877.74956,3.0943"
   id="path3838"
   inkscape:connector-curvature="0"
   sodipodi:nodetypes="cc" /></g>
	</g>
<text
   xml:space="preserve"
   style="font-size:40px;font-style:normal;font-variant:normal;font-weight:normal;font-stretch:normal;line-height:125%;letter-spacing:0px;word-spacing:0px;fill:#62676c;fill-opacity:1;stroke:none;font-family:Andalus;-inkscape-font-specification:Andalus"
   id="text3063"
   sodipodi:linespacing="125%"
   transform="translate(-6.1885986,-30.088526)"><textPath
     xlink:href="#path3838"
     id="textPath3840"><tspan
   rotate="0 0 0 0 0 0 0 0 0 0 0 0 0 0 0 0 0 0 0 0 0 0"
   style="font-size:60px;font-style:normal;font-variant:normal;font-weight:bold;font-stretch:normal;letter-spacing:8.88000011px;fill:#62676c;fill-opacity:1;font-family:Liberator;-inkscape-font-specification:Liberator Bold"
   id="tspan3065">     Miriasa &amp; Mirele</tspan></textPath></text>
</svg>