<?xml version="1.0" encoding="UTF-8" standalone="no"?>
<!-- Generator: Adobe Illustrator 17.0.0, SVG Export Plug-In . SVG Version: 6.00 Build 0)  -->

<svg
   xmlns:osb="http://www.openswatchbook.org/uri/2009/osb"
   xmlns:dc="http://purl.org/dc/elements/1.1/"
   xmlns:cc="http://creativecommons.org/ns#"
   xmlns:rdf="http://www.w3.org/1999/02/22-rdf-syntax-ns#"
   xmlns:svg="http://www.w3.org/2000/svg"
   xmlns="http://www.w3.org/2000/svg"
   xmlns:sodipodi="http://sodipodi.sourceforge.net/DTD/sodipodi-0.dtd"
   xmlns:inkscape="http://www.inkscape.org/namespaces/inkscape"
   version="1.1"
   id="Layer_1"
   x="0px"
   y="0px"
   width="1094px"
   height="209px"
   viewBox="0 0 1094 209"
   style="enable-background:new 0 0 1094 209;"
   xml:space="preserve"
   inkscape:version="0.48.5 r10040"
   sodipodi:docname="bride-groom.svg"><metadata
   id="metadata61"><rdf:RDF><cc:Work
       rdf:about=""><dc:format>image/svg+xml</dc:format><dc:type
         rdf:resource="http://purl.org/dc/dcmitype/StillImage" /></cc:Work></rdf:RDF></metadata><defs
   id="defs59"><linearGradient
   id="linearGradient3844"
   osb:paint="solid"><stop
     style="stop-color:#62676c;stop-opacity:1;"
     offset="0"
     id="stop3846" /></linearGradient>
	
	
</defs><sodipodi:namedview
   pagecolor="#ffffff"
   bordercolor="#666666"
   borderopacity="1"
   objecttolerance="10"
   gridtolerance="10"
   guidetolerance="10"
   inkscape:pageopacity="0"
   inkscape:pageshadow="2"
   inkscape:window-width="1680"
   inkscape:window-height="997"
   id="namedview57"
   showgrid="false"
   inkscape:zoom="0.96952484"
   inkscape:cx="476.63355"
   inkscape:cy="50.75583"
   inkscape:window-x="1276"
   inkscape:window-y="-4"
   inkscape:window-maximized="1"
   inkscape:current-layer="Layer_1" />
<style
   type="text/css"
   id="style3">
	.st0{fill:#62676C;}
	.st1{fill:#50555B;}
	.st2{fill:#393D42;}
	.st3{fill:none;stroke:#989CA3;stroke-width:3;stroke-linecap:round;stroke-linejoin:round;stroke-miterlimit:10;}
	.st4{fill:#FFF7E4;}
	.st5{fill:#FFFFFF;}
	.st6{fill:#E9EFD7;}
	.st7{fill:#E8ECD5;}
</style>
<g
   id="g7">
		<g
   id="g9">
			<path
   style="fill:#e9efd7"
   inkscape:connector-curvature="0"
   id="path11"
   d="m 1065.9,192.6 c -62.3,-9.6 -124.8,-17.6 -187.6,-24 3,-29.9 5.9,-59.8 8.9,-89.8 64.4,6.5 128.6,14.7 192.6,24.6 -12.5,14.2 -24.9,28.5 -37.2,42.9 7.9,15.5 15.6,30.9 23.3,46.3 z"
   class="st6" />
			<path
   style="fill:#ffffff"
   inkscape:connector-curvature="0"
   id="path13"
   d="m 1070.8,196.2 c -65,-10.2 -130.1,-18.5 -195.5,-25.1 3.1,-31.8 6.3,-63.5 9.4,-95.3 67.2,6.7 134.1,15.3 200.7,25.7 -13.3,15 -26.4,30 -39.4,45.2 8.4,16.5 16.6,33 24.8,49.5 z m -189.4,-30 c 60.1,6.1 119.9,13.8 179.6,22.9 -7.1,-14.4 -14.4,-28.8 -21.7,-43.1 11.6,-13.6 23.3,-27.1 35.1,-40.5 C 1013,96.1 951.6,88.3 889.9,82 c -2.9,28 -5.7,56.1 -8.5,84.2 z"
   class="st5" />
		</g>
		<g
   id="g15">
			<path
   style="fill:#e9efd7"
   inkscape:connector-curvature="0"
   id="path17"
   d="m 15.4,103.5 c 64,-9.9 128.2,-18.1 192.6,-24.6 3,29.9 5.9,59.8 8.9,89.8 -62.7,6.4 -125.2,14.3 -187.6,24 7.4,-17.4 14.8,-34.7 22.4,-51.9 -12,-12.6 -24.1,-24.9 -36.3,-37.3 z"
   class="st6" />
			<path
   style="fill:#ffffff"
   inkscape:connector-curvature="0"
   id="path19"
   d="m 220,171.2 c -65.3,6.6 -130.3,14.9 -195.2,25 7.7,-18.4 15.6,-36.7 23.6,-54.9 C 35.5,128 22.5,114.8 9.5,101.6 76.3,91.1 143.3,82.5 210.6,75.8 c 3.1,31.8 6.3,63.6 9.4,95.4 z M 33.9,189.1 c 59.8,-9.2 119.8,-16.8 179.9,-23 C 211,138 208.2,110 205.4,81.9 143.8,88.2 82.5,96 21.3,105.4 c 11.4,11.5 22.6,23 33.8,34.7 -7.1,16.3 -14.2,32.6 -21.2,49 z"
   class="st5" />
		</g>
		<g
   id="g21">
			<path
   style="fill:#e9efd7"
   inkscape:connector-curvature="0"
   id="path23"
   d="M 995.4,147.9 C 701.6,109.3 404.4,108.8 110.5,146.5 106.1,112.4 101.6,78.4 97.2,44.3 400,5.4 706.4,5.9 1009.1,45.8 c -4.6,34 -9.1,68.1 -13.7,102.1 z"
   class="st6" />
			<path
   style="fill:#ffffff"
   inkscape:connector-curvature="0"
   id="path25"
   d="M 997.9,151.1 C 702.5,112 403.6,111.5 108.1,149.7 103.4,113.8 98.7,77.9 94,42 399,2.6 707.5,3.1 1012.4,43.5 c -4.9,35.8 -9.7,71.7 -14.5,107.6 z M 113,143.4 c 292.3,-37.2 587.8,-36.8 880,1.4 4.3,-32.2 8.6,-64.4 12.8,-96.7 C 705.2,8.9 401.2,8.4 100.5,46.7 c 4.1,32.2 8.3,64.5 12.5,96.7 z"
   class="st5" />
		<path
   style="fill:none;stroke:none;stroke-width:1px;stroke-linecap:butt;stroke-linejoin:miter;stroke-opacity:1;fill-opacity:1"
   d="m 113.45764,141.95685 c 297.458,-32.63233 588.24398,-33.03368 877.74956,3.0943"
   id="path3838"
   inkscape:connector-curvature="0"
   sodipodi:nodetypes="cc" /></g>
	</g>
<g
   transform="translate(-15.471496,-30.088526)"
   style="font-size:40px;font-style:normal;font-variant:normal;font-weight:normal;font-stretch:normal;line-height:125%;letter-spacing:0px;word-spacing:0px;fill:#62676c;fill-opacity:1;stroke:none;font-family:Andalus;-inkscape-font-specification:Andalus"
   id="text3063"><path
     d="m 258.77366,127.67134 -1.19645,-40.092652 -0.0123,-0.175351 c 0.0434,-0.218375 0.15777,-0.402607 0.34304,-0.552696 0.039,-0.0027 0.0766,-0.02491 0.1128,-0.06665 0.0779,-0.0054 0.13501,-0.02901 0.17125,-0.07075 l 7.59852,-0.532892 c 0.40915,-0.02865 0.7289,0.203453 0.95927,0.696315 l 6.99864,22.739922 1.02471,4.97958 0.11507,-5.05951 4.66217,-23.557709 c 0.0813,-0.514723 0.36558,-0.789186 0.85269,-0.82339 l 7.59853,-0.532891 c 0.0417,0.03628 0.10148,0.05166 0.17945,0.04615 l 0.0625,0.05435 c 0.18351,0.104647 0.31271,0.271799 0.38759,0.501457 l 0.008,0.1169 c 0.0389,-0.0027 0.0598,0.01543 0.0625,0.05435 l 4.38198,39.869249 c 0.0164,0.23381 -0.0524,0.43932 -0.2064,0.61654 -0.15403,0.17722 -0.34792,0.27403 -0.58169,0.29043 l -7.07247,0.496 c -0.23383,0.0164 -0.44421,-0.0521 -0.63115,-0.20538 -0.18699,-0.1533 -0.28867,-0.34686 -0.30504,-0.58066 l -1.32471,-15.12016 -3.51846,15.57729 c -0.0824,0.22115 -0.21974,0.42657 -0.412,0.61627 -0.1923,0.1897 -0.39559,0.29206 -0.60989,0.30709 l -4.79291,0.33613 c -0.42866,0.0301 -0.82839,-0.2258 -1.19922,-0.76759 l -5.629,-14.93577 0.76943,15.1591 c 0.0164,0.2338 -0.0524,0.43931 -0.20639,0.61653 -0.15401,0.17723 -0.3479,0.27404 -0.58169,0.29043 l -7.1017,0.49805 c -0.21432,0.015 -0.41496,-0.0541 -0.60193,-0.20742 -0.18696,-0.15331 -0.28864,-0.34687 -0.30504,-0.58067 z"
     style="font-size:60px;font-style:normal;font-variant:normal;font-weight:bold;font-stretch:normal;letter-spacing:8.88000011px;fill:#62676c;fill-opacity:1;font-family:Liberator;-inkscape-font-specification:Liberator Bold"
     id="path3880" /><path
     d="m 307.45227,124.37944 -2.44511,-40.003472 c -0.0143,-0.233897 0.0566,-0.43391 0.21281,-0.600039 0.15617,-0.166045 0.35123,-0.256238 0.58517,-0.270579 l 7.13512,-0.436117 c 0.23393,-0.01426 0.43364,0.05181 0.59914,0.198191 0.16549,0.146468 0.25538,0.33665 0.26969,0.570547 l 2.44512,40.003469 c 0.0143,0.23394 -0.0515,0.43853 -0.1973,0.61377 -0.14584,0.17524 -0.33573,0.27 -0.56965,0.2843 l -7.13513,0.43612 c -0.23394,0.0143 -0.43882,-0.0563 -0.61466,-0.21192 -0.17583,-0.15558 -0.2709,-0.35033 -0.2852,-0.58427 z"
     style="font-size:60px;font-style:normal;font-variant:normal;font-weight:bold;font-stretch:normal;letter-spacing:8.88000011px;fill:#62676c;fill-opacity:1;font-family:Liberator;-inkscape-font-specification:Liberator Bold"
     id="path3882" /><path
     d="m 331.55968,122.93402 -2.12536,-40.197755 c -0.0124,-0.234007 0.0599,-0.438306 0.21696,-0.612897 0.15702,-0.174507 0.3428,-0.267454 0.55735,-0.278839 l 19.07491,-1.008545 c 0.077,-0.02358 0.15447,-0.03746 0.23251,-0.04163 0.46807,-0.02471 0.91825,0.166634 1.35055,0.574024 l 3.60393,3.241972 c 0.22586,0.203239 0.39504,0.443665 0.50754,0.721278 0.11245,0.277691 0.17281,0.494533 0.18109,0.650526 l -0.0153,0.264851 0.80436,15.213125 c 0.12637,0.54098 -0.0413,1.06815 -0.50314,1.58151 l -3.24197,3.60393 -0.16935,0.12631 6.90959,14.71429 c 0.0215,0.038 0.0333,0.0765 0.0354,0.11548 0.007,0.13653 -0.0631,0.28694 -0.21084,0.45122 -0.18476,0.20535 -0.39415,0.31421 -0.62817,0.32659 l -8.01614,0.42383 c -0.21457,0.0113 -0.42888,-0.0653 -0.64293,-0.23004 -0.21409,-0.16471 -0.37556,-0.35176 -0.4844,-0.56115 l -6.64924,-14.22932 -2.75007,0.1454 0.76878,14.54024 c 0.0113,0.21455 -0.0613,0.41397 -0.21774,0.59827 -0.15651,0.1843 -0.35179,0.28264 -0.58582,0.29501 l -7.13847,0.37744 c -0.19504,0.0103 -0.38497,-0.0677 -0.56978,-0.23392 -0.18483,-0.16625 -0.28291,-0.35665 -0.29425,-0.5712 z m 7.57168,-23.811894 6.29004,-0.332572 c 0.13651,-0.0072 0.26943,-0.08268 0.39876,-0.226448 l 0.91595,-0.987239 c 0.0739,-0.08211 0.1185,-0.162708 0.1339,-0.241782 0.0154,-0.07902 0.022,-0.138048 0.02,-0.177083 l -0.005,-0.08777 -0.297,-5.617154 c 0.0297,-0.177566 -0.0376,-0.340256 -0.20183,-0.488071 l -1.01495,-0.885146 c -0.0411,-0.03691 -0.0868,-0.06872 -0.13706,-0.09544 -0.0503,-0.02664 -0.0952,-0.04383 -0.13475,-0.05155 -0.0395,-0.0077 -0.0739,-0.01073 -0.10317,-0.0092 -0.0293,0.0016 -0.0537,0.0029 -0.0731,0.0039 l -0.0293,0.0015 -6.23153,0.329479 z"
     style="font-size:60px;font-style:normal;font-variant:normal;font-weight:bold;font-stretch:normal;letter-spacing:8.88000011px;fill:#62676c;fill-opacity:1;font-family:Liberator;-inkscape-font-specification:Liberator Bold"
     id="path3884" /><path
     d="m 373.14873,120.82264 -1.7099,-40.21757 c -0.01,-0.234122 0.0645,-0.437662 0.22328,-0.610621 0.15881,-0.172876 0.3553,-0.264313 0.58947,-0.274311 l 21.80647,-0.927131 c 0.21463,-0.0091 0.41329,0.06555 0.59599,0.223909 0.18265,0.158442 0.27896,0.354723 0.28894,0.588844 l 0.30365,7.141985 c 0.01,0.234198 -0.0694,0.437946 -0.23792,0.611244 -0.16859,0.173367 -0.3602,0.264596 -0.57483,0.273688 l -13.84491,0.588635 0.32854,7.727394 10.59589,-0.450498 c 0.23414,-0.0099 0.43748,0.05962 0.61,0.208651 0.17248,0.149083 0.26371,0.340693 0.27369,0.574831 l 0.30365,7.14199 c 0.01,0.23418 -0.0645,0.43772 -0.22329,0.61062 -0.15883,0.17293 -0.35532,0.26437 -0.58946,0.27431 l -10.5959,0.4505 0.32854,7.72739 13.84492,-0.58863 c 0.21462,-0.009 0.41328,0.0655 0.59598,0.2239 0.18265,0.15841 0.27897,0.35469 0.28895,0.58885 l 0.30241,7.11271 c 0.01,0.23417 -0.0694,0.43792 -0.23793,0.61125 -0.16859,0.17333 -0.3602,0.26456 -0.57483,0.27369 l -21.80647,0.92713 c -0.23417,0.01 -0.43771,-0.0645 -0.61062,-0.22329 -0.17292,-0.15881 -0.26436,-0.3553 -0.27431,-0.58947 z"
     style="font-size:60px;font-style:normal;font-variant:normal;font-weight:bold;font-stretch:normal;letter-spacing:8.88000011px;fill:#62676c;fill-opacity:1;font-family:Liberator;-inkscape-font-specification:Liberator Bold"
     id="path3886" /><path
     d="m 410.89308,119.2704 10.62038,-40.550595 -0.002,-0.05856 c 0.2359,-0.574093 0.51003,-0.86609 0.82238,-0.875992 l 2.63541,-0.08319 1.84478,-0.05823 2.63541,-0.08319 c 0.37089,-0.01167 0.66289,0.26246 0.87599,0.82238 l 0.002,0.05856 c 1.44904,4.429179 3.63712,11.067542 6.56424,19.915108 2.92707,8.847611 5.1246,15.475901 6.5926,19.884901 0.0207,0.0384 0.0317,0.0772 0.033,0.1162 0.004,0.13666 -0.0789,0.28584 -0.24968,0.44756 -0.2086,0.20199 -0.43002,0.30669 -0.66425,0.31408 l -6.85205,0.2163 c -0.21476,0.007 -0.42739,-0.0744 -0.63789,-0.24366 -0.21055,-0.16923 -0.368,-0.35967 -0.47236,-0.57132 l -1.58828,-4.81557 -12.03502,0.37992 -1.28139,4.90615 c -0.0908,0.21782 -0.23597,0.41781 -0.43539,0.59997 -0.19944,0.18217 -0.40652,0.27664 -0.62125,0.28342 l -6.85205,0.2163 c -0.23426,0.007 -0.46184,-0.0831 -0.68274,-0.27156 -0.18001,-0.13111 -0.27248,-0.27475 -0.2774,-0.43092 -0.001,-0.039 0.007,-0.0784 0.0256,-0.11805 z m 12.27066,-13.34302 7.23273,-0.22832 -3.96067,-12.185791 z"
     style="font-size:60px;font-style:normal;font-variant:normal;font-weight:bold;font-stretch:normal;letter-spacing:8.88000011px;fill:#62676c;fill-opacity:1;font-family:Liberator;-inkscape-font-specification:Liberator Bold"
     id="path3888" /><path
     d="m 457.8682,113.02185 -0.11609,-5.79962 c -0.005,-0.23432 0.0841,-0.43633 0.26625,-0.60604 0.18218,-0.16968 0.39044,-0.25688 0.62477,-0.26158 l 7.05914,-0.1413 c 0.23431,-0.005 0.43613,0.0743 0.60545,0.23696 0.16929,0.16267 0.25629,0.36116 0.26099,0.59548 l 0.0539,2.69477 7.55708,-0.15126 c 0.0781,-0.002 0.17455,-0.0621 0.28939,-0.18161 l 1.00584,-0.98713 0.16636,-0.47217 -0.0903,-4.51082 c -0.003,-0.1562 -0.0649,-0.31125 -0.18512,-0.46513 l -1.04454,-0.94609 c -0.11953,-0.1148 -0.21834,-0.17143 -0.29643,-0.16988 l -10.80838,0.21635 c -0.54599,0.05 -1.06796,-0.1642 -1.56591,-0.64262 l -3.40601,-3.272341 c -0.2191,-0.21048 -0.38499,-0.446465 -0.49767,-0.707955 -0.11268,-0.261448 -0.17058,-0.470292 -0.1737,-0.626532 l 0.0246,-0.234915 -0.0586,0.0012 -0.28436,-14.206139 0.0586,-0.0012 c -0.089,-0.545165 0.10563,-1.066744 0.58404,-1.564736 l 3.27175,-3.435304 c 0.2101,-0.238586 0.44589,-0.414239 0.70737,-0.526957 0.26146,-0.112635 0.47031,-0.170537 0.62653,-0.173706 l 0.20504,-0.0041 15.55352,-0.311325 c 0.0777,-0.02105 0.14585,-0.03218 0.20446,-0.0334 0.46863,-0.0093 0.92245,0.216 1.36145,0.676015 l 3.43589,3.301041 c 0.21907,0.210539 0.38496,0.446524 0.49767,0.707956 0.11265,0.261507 0.17055,0.47035 0.17371,0.626532 l 0.004,0.205037 -0.0586,0.0012 0.0597,0.05741 0.12371,6.180402 c 0.005,0.234359 -0.0792,0.436273 -0.2516,0.605743 -0.17245,0.16953 -0.37583,0.256625 -0.61013,0.261286 l -7.08842,0.141885 c -0.23435,0.0047 -0.43617,-0.07426 -0.60545,-0.236955 -0.16932,-0.16263 -0.25632,-0.361124 -0.26099,-0.595482 l -0.0598,-2.987683 -7.43992,0.148921 c -0.15623,0.0032 -0.29175,0.06448 -0.40656,0.183954 l -0.94784,0.95666 c -0.0766,0.07971 -0.13357,0.158987 -0.17105,0.237846 -0.0375,0.07892 -0.0559,0.137896 -0.0551,0.176919 l 0.002,0.08787 0.0973,4.862307 0.0574,-0.05975 c -0.0359,0.157028 0.0258,0.312074 0.18512,0.465139 l 0.86644,0.832436 11.21846,-0.224553 c 0.54479,-0.108555 1.06656,0.09589 1.56532,0.613328 l 3.43589,3.301041 c 0.21907,0.210523 0.38496,0.446508 0.49767,0.707956 0.11265,0.26149 0.17035,0.46057 0.17312,0.597241 l 0.005,0.234328 0.28494,14.23543 c 0.001,0.0586 0.002,0.11717 0.004,0.17575 0.01,0.48818 -0.19587,0.95138 -0.61685,1.38957 l -3.30162,3.4066 c -0.21053,0.2191 -0.44642,0.38987 -0.70767,0.51231 -0.2613,0.12244 -0.46028,0.18503 -0.59694,0.18777 l -0.23433,0.005 -15.55353,0.31132 c -0.0391,7.9e-4 -0.0781,0.002 -0.11716,0.002 -0.50772,0.0102 -0.99064,-0.20483 -1.44875,-0.64496 l -3.40601,-3.27234 c -0.2191,-0.2105 -0.38499,-0.44648 -0.49766,-0.70796 -0.11269,-0.26146 -0.17039,-0.46054 -0.17312,-0.59724 l 0.0246,-0.23491 c -0.0402,-0.0578 -0.0607,-0.10622 -0.0615,-0.14528 z"
     style="font-size:60px;font-style:normal;font-variant:normal;font-weight:bold;font-stretch:normal;letter-spacing:8.88000011px;fill:#62676c;fill-opacity:1;font-family:Liberator;-inkscape-font-specification:Liberator Bold"
     id="path3890" /><path
     d="m 499.19235,117.12563 11.55921,-40.293027 -4.9e-4,-0.05859 c 0.24916,-0.568461 0.53,-0.854013 0.8425,-0.856659 l 2.63663,-0.02197 1.84564,-0.01538 2.63662,-0.02197 c 0.37106,-0.003 0.65662,0.277784 0.85666,0.842501 l 4.9e-4,0.05859 c 1.34579,4.461634 3.37912,11.149019 6.09999,20.062175 2.72081,8.913197 4.76382,15.590737 6.12904,20.032637 0.0198,0.0389 0.0299,0.0779 0.0303,0.11694 0.001,0.13671 -0.0856,0.28392 -0.26,0.44163 -0.21324,0.1971 -0.43703,0.29662 -0.67136,0.29858 l -6.85523,0.0571 c -0.21487,0.002 -0.42555,-0.0844 -0.63206,-0.25842 -0.20656,-0.17406 -0.35955,-0.36811 -0.45897,-0.58213 l -1.47602,-4.85115 -12.04059,0.10032 -1.39498,4.87508 c -0.0959,0.21565 -0.24561,0.41221 -0.4492,0.5897 -0.20362,0.17748 -0.41284,0.26712 -0.62767,0.26891 l -6.85523,0.0571 c -0.23437,0.002 -0.45978,-0.0938 -0.67624,-0.28734 -0.17692,-0.13525 -0.26603,-0.281 -0.26733,-0.43725 -3.3e-4,-0.0391 0.009,-0.0782 0.0283,-0.11742 z m 12.57721,-13.05447 7.23608,-0.0603 -3.67662,-12.274483 z"
     style="font-size:60px;font-style:normal;font-variant:normal;font-weight:bold;font-stretch:normal;letter-spacing:8.88000011px;fill:#62676c;fill-opacity:1;font-family:Liberator;-inkscape-font-specification:Liberator Bold"
     id="path3892" /><path
     d="m 575.19801,102.44107 0.0806,-7.147984 c 0.003,-0.234337 0.0879,-0.433583 0.25578,-0.597738 0.16788,-0.16411 0.36899,-0.244854 0.60336,-0.242233 l 8.31978,0.09386 0.0939,-8.319783 c 0.002,-0.214799 0.0876,-0.409162 0.25561,-0.583091 0.16798,-0.173866 0.36915,-0.259492 0.60353,-0.256881 l 7.08939,0.07998 c 0.23434,0.0027 0.43841,0.09287 0.61222,0.270595 0.17377,0.177785 0.25945,0.374076 0.25705,0.588875 l -0.0939,8.319783 8.40767,0.09485 c 0.19505,0.02176 0.36489,0.116452 0.50952,0.284086 0.14457,0.16768 0.21566,0.358924 0.21327,0.573732 l -0.0806,7.147983 c -0.005,0.42967 -0.25186,0.68081 -0.74096,0.75341 l -6.6e-4,0.0586 -8.40767,-0.0948 -0.0948,8.40767 -0.0586,-6.6e-4 c -0.0841,0.52643 -0.36048,0.787 -0.82918,0.78171 l -7.08939,-0.08 c -0.19532,-0.002 -0.37509,-0.0824 -0.53932,-0.24048 -0.16425,-0.15811 -0.26469,-0.3448 -0.30132,-0.56007 l 0.0949,-8.40767 -8.31978,-0.0939 c -0.23437,-0.003 -0.43361,-0.0879 -0.59774,-0.25578 -0.16414,-0.16786 -0.24499,-0.35922 -0.24257,-0.57406 z"
     style="font-size:60px;font-style:normal;font-variant:normal;font-weight:bold;font-stretch:normal;letter-spacing:8.88000011px;fill:#62676c;fill-opacity:1;font-family:Liberator;-inkscape-font-specification:Liberator Bold"
     id="path3894" /><path
     d="m 646.09206,118.15228 2.8786,-40.007076 0.006,-0.175693 c 0.0654,-0.212841 0.19781,-0.384518 0.39736,-0.515029 0.039,0.0013 0.0787,-0.01701 0.11898,-0.05486 0.0781,0.0025 0.13726,-0.01515 0.17755,-0.053 l 7.61337,0.24101 c 0.40994,0.01302 0.70449,0.276376 0.88365,0.790073 l 4.6547,23.332785 0.51405,5.05786 0.62796,-5.02171 7.0289,-22.962926 c 0.13316,-0.50381 0.44378,-0.74801 0.93184,-0.732601 l 7.61338,0.241009 c 0.0378,0.04032 0.0957,0.0617 0.17384,0.06413 l 0.0567,0.06042 c 0.17195,0.122731 0.28351,0.302132 0.3347,0.538203 l -0.004,0.117129 c 0.039,0.0013 0.0579,0.02141 0.0567,0.06042 l 0.31316,40.108113 c -0.007,0.23426 -0.0968,0.43173 -0.2679,0.59241 -0.17122,0.16068 -0.37395,0.23731 -0.60817,0.22989 l -7.08629,-0.22432 c -0.23429,-0.007 -0.43664,-0.0969 -0.60705,-0.26837 -0.17047,-0.17149 -0.25198,-0.37437 -0.24454,-0.60862 l 0.21663,-15.17653 -5.08118,15.13978 c -0.10443,0.21165 -0.2619,0.40207 -0.47241,0.57128 -0.21056,0.1692 -0.4232,0.2504 -0.63791,0.24361 l -4.80228,-0.15203 c -0.42949,-0.0136 -0.8012,-0.3087 -1.11513,-0.88533 l -4.08415,-15.42992 -0.77299,15.15892 c -0.007,0.23425 -0.0967,0.43172 -0.2679,0.5924 -0.1712,0.16068 -0.37392,0.23731 -0.60816,0.2299 l -7.11558,-0.22525 c -0.21474,-0.007 -0.40733,-0.096 -0.57776,-0.26744 -0.17045,-0.1715 -0.25196,-0.37437 -0.24454,-0.60863 z"
     style="font-size:60px;font-style:normal;font-variant:normal;font-weight:bold;font-stretch:normal;letter-spacing:8.88000011px;fill:#62676c;fill-opacity:1;font-family:Liberator;-inkscape-font-specification:Liberator Bold"
     id="path3896" /><path
     d="m 694.85371,119.83082 1.66559,-40.043504 c 0.01,-0.234131 0.10078,-0.425825 0.27316,-0.575082 0.17236,-0.149174 0.37562,-0.218912 0.6098,-0.209213 l 7.14226,0.297078 c 0.23416,0.0098 0.42606,0.09596 0.5757,0.258523 0.1496,0.16265 0.21954,0.36104 0.20982,0.595172 l -1.66559,40.043496 c -0.01,0.23418 -0.0961,0.43095 -0.25913,0.59033 -0.16303,0.15938 -0.36162,0.2342 -0.59578,0.22446 l -7.14226,-0.29708 c -0.23418,-0.01 -0.43075,-0.101 -0.58972,-0.27377 -0.15898,-0.17277 -0.23359,-0.37624 -0.22385,-0.61041 z"
     style="font-size:60px;font-style:normal;font-variant:normal;font-weight:bold;font-stretch:normal;letter-spacing:8.88000011px;fill:#62676c;fill-opacity:1;font-family:Liberator;-inkscape-font-specification:Liberator Bold"
     id="path3898" /><path
     d="m 718.98304,120.8655 2.03661,-40.20235 c 0.0119,-0.234034 0.10489,-0.429773 0.27909,-0.587218 0.1742,-0.157362 0.36859,-0.230629 0.58316,-0.219801 l 19.0771,0.966428 c 0.079,-0.01551 0.15751,-0.02131 0.23556,-0.0174 0.46812,0.02376 0.89614,0.260559 1.28406,0.710407 l 3.24992,3.596768 c 0.20367,0.225475 0.34712,0.482084 0.43035,0.76983 0.0832,0.287816 0.12082,0.509732 0.11295,0.665746 l -0.0426,0.261852 -0.77077,15.214869 c 0.0698,0.55113 -0.15142,1.05816 -0.66375,1.5211 l -3.59677,3.24992 -0.18148,0.10814 5.35333,15.3491 c 0.0175,0.04 0.0253,0.0795 0.0233,0.11852 -0.007,0.13654 -0.0924,0.27889 -0.25631,0.42703 -0.20498,0.18518 -0.42449,0.27184 -0.65853,0.25999 l -8.01706,-0.40614 c -0.2146,-0.0109 -0.41984,-0.10927 -0.61574,-0.2952 -0.19594,-0.18594 -0.33724,-0.38866 -0.42388,-0.60817 l -5.14445,-14.83983 -2.75038,-0.13933 -0.73667,14.5419 c -0.0109,0.21457 -0.10367,0.40543 -0.27835,0.57259 -0.17471,0.16715 -0.3791,0.2448 -0.61316,0.23295 l -7.13928,-0.36167 c -0.19507,-0.01 -0.37593,-0.10705 -0.54259,-0.2915 -0.16667,-0.18445 -0.24456,-0.38396 -0.23369,-0.59853 z m 9.9899,-22.902805 6.29076,0.318684 c 0.13653,0.0069 0.27653,-0.05441 0.42001,-0.184063 l 1.01299,-0.887386 c 0.082,-0.07405 0.13467,-0.149602 0.15816,-0.226663 0.0234,-0.07701 0.0362,-0.135037 0.0381,-0.174074 l 0.004,-0.08778 0.2846,-5.617796 c 0.0479,-0.173549 -0.002,-0.342317 -0.15036,-0.506303 l -0.91813,-0.985213 c -0.0371,-0.04096 -0.0792,-0.07732 -0.12648,-0.109078 -0.0473,-0.0317 -0.0902,-0.05343 -0.1287,-0.06519 -0.0385,-0.0117 -0.0724,-0.0183 -0.10167,-0.01982 -0.0293,-0.0015 -0.0537,-0.0027 -0.0731,-0.0037 l -0.0293,-0.0015 -6.23225,-0.31572 z"
     style="font-size:60px;font-style:normal;font-variant:normal;font-weight:bold;font-stretch:normal;letter-spacing:8.88000011px;fill:#62676c;fill-opacity:1;font-family:Liberator;-inkscape-font-specification:Liberator Bold"
     id="path3900" /><path
     d="m 760.56824,123.06825 2.4908,-40.176775 c 0.0145,-0.233885 0.10973,-0.42856 0.28571,-0.584026 0.17596,-0.155384 0.38091,-0.225845 0.61484,-0.211384 l 21.78435,1.350543 c 0.2144,0.01333 0.40421,0.108268 0.56941,0.284802 0.16514,0.176615 0.24047,0.381865 0.226,0.615751 l -0.44233,7.134739 c -0.0145,0.233958 -0.11464,0.428331 -0.30032,0.58312 -0.18575,0.154852 -0.38582,0.225615 -0.60023,0.21229 l -13.83087,-0.857459 -0.47858,7.719554 10.58515,0.656237 c 0.2339,0.01453 0.42888,0.104889 0.58493,0.271088 0.15601,0.16625 0.22677,0.36632 0.21229,0.60022 l -0.44232,7.13474 c -0.0145,0.23395 -0.10977,0.42862 -0.28571,0.58403 -0.176,0.15544 -0.38095,0.2259 -0.61485,0.21138 l -10.58514,-0.65623 -0.47858,7.71955 13.83086,0.85746 c 0.21441,0.0133 0.40421,0.10823 0.56941,0.2848 0.16514,0.17658 0.24048,0.38183 0.226,0.61575 l -0.44051,7.1055 c -0.0145,0.23393 -0.11464,0.4283 -0.30033,0.58312 -0.18574,0.15482 -0.38582,0.22558 -0.60022,0.21229 l -21.78435,-1.35054 c -0.23393,-0.0145 -0.42861,-0.10974 -0.58403,-0.28571 -0.15543,-0.17597 -0.22589,-0.38092 -0.21138,-0.61484 z"
     style="font-size:60px;font-style:normal;font-variant:normal;font-weight:bold;font-stretch:normal;letter-spacing:8.88000011px;fill:#62676c;fill-opacity:1;font-family:Liberator;-inkscape-font-specification:Liberator Bold"
     id="path3902" /><path
     d="m 799.96292,125.59506 2.94789,-40.145821 0.0584,0.0043 c 0.0518,-0.172407 0.16518,-0.315859 0.34005,-0.430354 0.17486,-0.114414 0.35969,-0.164489 0.55448,-0.150227 l 7.04159,0.51706 c 0.19477,0.01434 0.3703,0.09088 0.52659,0.22961 0.15626,0.13881 0.24744,0.29728 0.27354,0.47541 l -2.36432,32.198471 16.0408,1.17786 c 0.23371,0.0172 0.4318,0.11985 0.59427,0.30802 0.16241,0.18819 0.23576,0.38942 0.22005,0.60368 l -0.52135,7.10002 c -0.0172,0.23375 -0.11951,0.42697 -0.30694,0.57967 -0.1875,0.15269 -0.39811,0.22046 -0.63182,0.2033 l -23.92972,-1.75715 c -0.23375,-0.0172 -0.43706,-0.11533 -0.60995,-0.29448 -0.1729,-0.17916 -0.25076,-0.38561 -0.23359,-0.61936 z"
     style="font-size:60px;font-style:normal;font-variant:normal;font-weight:bold;font-stretch:normal;letter-spacing:8.88000011px;fill:#62676c;fill-opacity:1;font-family:Liberator;-inkscape-font-specification:Liberator Bold"
     id="path3904" /><path
     d="m 841.54588,128.74624 3.4068,-40.109483 c 0.0198,-0.233494 0.11948,-0.425945 0.29896,-0.577356 0.17946,-0.151328 0.38596,-0.217095 0.6195,-0.197301 l 21.74787,1.847207 c 0.21404,0.01822 0.40163,0.117462 0.56276,0.29772 0.16107,0.180336 0.2317,0.387251 0.21189,0.620746 l -0.60499,7.12279 c -0.0199,0.233566 -0.12438,0.425604 -0.31355,0.576116 -0.18923,0.150574 -0.39087,0.216755 -0.60491,0.198541 l -13.80771,-1.172791 -0.65458,7.706631 10.56742,0.89756 c 0.23351,0.0199 0.42637,0.11465 0.57859,0.28437 0.15217,0.16976 0.21835,0.3714 0.19854,0.60491 l -0.60499,7.12279 c -0.0199,0.23355 -0.11951,0.426 -0.29896,0.57735 -0.17949,0.15139 -0.38599,0.21716 -0.6195,0.19731 l -10.56742,-0.89757 -0.65458,7.70662 13.8077,1.17279 c 0.21405,0.0182 0.40163,0.11743 0.56276,0.29772 0.16108,0.1803 0.23171,0.38722 0.2119,0.62075 l -0.60251,7.0936 c -0.0199,0.23353 -0.12438,0.42557 -0.31356,0.57611 -0.18923,0.15054 -0.39086,0.21672 -0.60491,0.19854 l -21.74786,-1.8472 c -0.23354,-0.0198 -0.42599,-0.11949 -0.57736,-0.29896 -0.15137,-0.17947 -0.21714,-0.38597 -0.1973,-0.61951 z"
     style="font-size:60px;font-style:normal;font-variant:normal;font-weight:bold;font-stretch:normal;letter-spacing:8.88000011px;fill:#62676c;fill-opacity:1;font-family:Liberator;-inkscape-font-specification:Liberator Bold"
     id="path3906" /></g></svg>