<?xml version="1.0" encoding="UTF-8" standalone="no"?>
<!-- Generator: Adobe Illustrator 17.0.0, SVG Export Plug-In . SVG Version: 6.00 Build 0)  -->

<svg
   xmlns:osb="http://www.openswatchbook.org/uri/2009/osb"
   xmlns:dc="http://purl.org/dc/elements/1.1/"
   xmlns:cc="http://creativecommons.org/ns#"
   xmlns:rdf="http://www.w3.org/1999/02/22-rdf-syntax-ns#"
   xmlns:svg="http://www.w3.org/2000/svg"
   xmlns="http://www.w3.org/2000/svg"
   xmlns:sodipodi="http://sodipodi.sourceforge.net/DTD/sodipodi-0.dtd"
   xmlns:inkscape="http://www.inkscape.org/namespaces/inkscape"
   version="1.1"
   id="Layer_1"
   x="0px"
   y="0px"
   width="1094px"
   height="209px"
   viewBox="0 0 1094 209"
   style="enable-background:new 0 0 1094 209;"
   xml:space="preserve"
   inkscape:version="0.48.5 r10040"
   sodipodi:docname="bride-groom.svg"><metadata
   id="metadata61"><rdf:RDF><cc:Work
       rdf:about=""><dc:format>image/svg+xml</dc:format><dc:type
         rdf:resource="http://purl.org/dc/dcmitype/StillImage" /></cc:Work></rdf:RDF></metadata><defs
   id="defs59"><linearGradient
   id="linearGradient3844"
   osb:paint="solid"><stop
     style="stop-color:#62676c;stop-opacity:1;"
     offset="0"
     id="stop3846" /></linearGradient>
	
	
</defs><sodipodi:namedview
   pagecolor="#ffffff"
   bordercolor="#666666"
   borderopacity="1"
   objecttolerance="10"
   gridtolerance="10"
   guidetolerance="10"
   inkscape:pageopacity="0"
   inkscape:pageshadow="2"
   inkscape:window-width="1680"
   inkscape:window-height="997"
   id="namedview57"
   showgrid="false"
   inkscape:zoom="0.96952484"
   inkscape:cx="476.63355"
   inkscape:cy="50.75583"
   inkscape:window-x="1276"
   inkscape:window-y="-4"
   inkscape:window-maximized="1"
   inkscape:current-layer="text3063" />
<style
   type="text/css"
   id="style3">
	.st0{fill:#62676C;}
	.st1{fill:#50555B;}
	.st2{fill:#393D42;}
	.st3{fill:none;stroke:#989CA3;stroke-width:3;stroke-linecap:round;stroke-linejoin:round;stroke-miterlimit:10;}
	.st4{fill:#FFF7E4;}
	.st5{fill:#FFFFFF;}
	.st6{fill:#E9EFD7;}
	.st7{fill:#E8ECD5;}
</style>
<g
   id="g7">
		<g
   id="g9">
			<path
   style="fill:#e9efd7"
   inkscape:connector-curvature="0"
   id="path11"
   d="m 1065.9,192.6 c -62.3,-9.6 -124.8,-17.6 -187.6,-24 3,-29.9 5.9,-59.8 8.9,-89.8 64.4,6.5 128.6,14.7 192.6,24.6 -12.5,14.2 -24.9,28.5 -37.2,42.9 7.9,15.5 15.6,30.9 23.3,46.3 z"
   class="st6" />
			<path
   style="fill:#ffffff"
   inkscape:connector-curvature="0"
   id="path13"
   d="m 1070.8,196.2 c -65,-10.2 -130.1,-18.5 -195.5,-25.1 3.1,-31.8 6.3,-63.5 9.4,-95.3 67.2,6.7 134.1,15.3 200.7,25.7 -13.3,15 -26.4,30 -39.4,45.2 8.4,16.5 16.6,33 24.8,49.5 z m -189.4,-30 c 60.1,6.1 119.9,13.8 179.6,22.9 -7.1,-14.4 -14.4,-28.8 -21.7,-43.1 11.6,-13.6 23.3,-27.1 35.1,-40.5 C 1013,96.1 951.6,88.3 889.9,82 c -2.9,28 -5.7,56.1 -8.5,84.2 z"
   class="st5" />
		</g>
		<g
   id="g15">
			<path
   style="fill:#e9efd7"
   inkscape:connector-curvature="0"
   id="path17"
   d="m 15.4,103.5 c 64,-9.9 128.2,-18.1 192.6,-24.6 3,29.9 5.9,59.8 8.9,89.8 -62.7,6.4 -125.2,14.3 -187.6,24 7.4,-17.4 14.8,-34.7 22.4,-51.9 -12,-12.6 -24.1,-24.9 -36.3,-37.3 z"
   class="st6" />
			<path
   style="fill:#ffffff"
   inkscape:connector-curvature="0"
   id="path19"
   d="m 220,171.2 c -65.3,6.6 -130.3,14.9 -195.2,25 7.7,-18.4 15.6,-36.7 23.6,-54.9 C 35.5,128 22.5,114.8 9.5,101.6 76.3,91.1 143.3,82.5 210.6,75.8 c 3.1,31.8 6.3,63.6 9.4,95.4 z M 33.9,189.1 c 59.8,-9.2 119.8,-16.8 179.9,-23 C 211,138 208.2,110 205.4,81.9 143.8,88.2 82.5,96 21.3,105.4 c 11.4,11.5 22.6,23 33.8,34.7 -7.1,16.3 -14.2,32.6 -21.2,49 z"
   class="st5" />
		</g>
		<g
   id="g21">
			<path
   style="fill:#e9efd7"
   inkscape:connector-curvature="0"
   id="path23"
   d="M 995.4,147.9 C 701.6,109.3 404.4,108.8 110.5,146.5 106.1,112.4 101.6,78.4 97.2,44.3 400,5.4 706.4,5.9 1009.1,45.8 c -4.6,34 -9.1,68.1 -13.7,102.1 z"
   class="st6" />
			<path
   style="fill:#ffffff"
   inkscape:connector-curvature="0"
   id="path25"
   d="M 997.9,151.1 C 702.5,112 403.6,111.5 108.1,149.7 103.4,113.8 98.7,77.9 94,42 399,2.6 707.5,3.1 1012.4,43.5 c -4.9,35.8 -9.7,71.7 -14.5,107.6 z M 113,143.4 c 292.3,-37.2 587.8,-36.8 880,1.4 4.3,-32.2 8.6,-64.4 12.8,-96.7 C 705.2,8.9 401.2,8.4 100.5,46.7 c 4.1,32.2 8.3,64.5 12.5,96.7 z"
   class="st5" />
		<path
   style="fill:none;stroke:none;stroke-width:1px;stroke-linecap:butt;stroke-linejoin:miter;stroke-opacity:1;fill-opacity:1"
   d="m 113.45764,141.95685 c 297.458,-32.63233 588.24398,-33.03368 877.74956,3.0943"
   id="path3838"
   inkscape:connector-curvature="0"
   sodipodi:nodetypes="cc" /></g>
	</g>
<g
   transform="translate(-4.1257324,-30.088526)"
   style="font-size:40px;font-style:normal;font-variant:normal;font-weight:normal;font-stretch:normal;line-height:125%;letter-spacing:0px;word-spacing:0px;fill:#62676c;fill-opacity:1;stroke:none;font-family:Andalus;-inkscape-font-specification:Andalus"
   id="text3063"><path
     d="m 258.77366,127.67134 -1.19645,-40.092652 -0.0123,-0.175351 c 0.0434,-0.218375 0.15777,-0.402607 0.34304,-0.552696 0.039,-0.0027 0.0766,-0.02491 0.1128,-0.06665 0.0779,-0.0054 0.13501,-0.02901 0.17125,-0.07075 l 7.59852,-0.532892 c 0.40915,-0.02865 0.7289,0.203453 0.95927,0.696315 l 6.99864,22.739926 1.02471,4.97958 0.11507,-5.05951 4.66217,-23.557713 c 0.0813,-0.514723 0.36558,-0.789186 0.85269,-0.82339 l 7.59853,-0.532891 c 0.0417,0.03628 0.10148,0.05166 0.17945,0.04615 l 0.0625,0.05435 c 0.18351,0.104647 0.31271,0.271799 0.38759,0.501457 l 0.008,0.1169 c 0.0389,-0.0027 0.0598,0.01543 0.0625,0.05435 l 4.38198,39.869247 c 0.0164,0.23381 -0.0524,0.43932 -0.2064,0.61654 -0.15403,0.17722 -0.34792,0.27403 -0.58169,0.29043 l -7.07247,0.496 c -0.23383,0.0164 -0.44421,-0.0521 -0.63115,-0.20538 -0.18699,-0.1533 -0.28867,-0.34686 -0.30504,-0.58066 l -1.32471,-15.12016 -3.51846,15.57729 c -0.0824,0.22115 -0.21974,0.42657 -0.412,0.61627 -0.1923,0.1897 -0.39559,0.29206 -0.60989,0.30709 l -4.79291,0.33613 c -0.42866,0.0301 -0.82839,-0.2258 -1.19922,-0.76759 l -5.629,-14.93577 0.76943,15.1591 c 0.0164,0.2338 -0.0524,0.43931 -0.20639,0.61653 -0.15401,0.17723 -0.3479,0.27404 -0.58169,0.29043 l -7.1017,0.49805 c -0.21432,0.015 -0.41496,-0.0541 -0.60193,-0.20742 -0.18696,-0.15331 -0.28864,-0.34687 -0.30504,-0.58067 z"
     style="font-size:60px;font-style:normal;font-variant:normal;font-weight:bold;font-stretch:normal;letter-spacing:8.88000011px;fill:#62676c;fill-opacity:1;font-family:Liberator;-inkscape-font-specification:Liberator Bold"
     id="path3851"
     inkscape:connector-curvature="0" /><path
     d="m 307.45227,124.37944 -2.44511,-40.003472 c -0.0143,-0.233897 0.0566,-0.43391 0.21281,-0.600039 0.15617,-0.166045 0.35123,-0.256238 0.58517,-0.270579 l 7.13512,-0.436117 c 0.23393,-0.01426 0.43364,0.05181 0.59914,0.198191 0.16549,0.146468 0.25538,0.33665 0.26969,0.570547 l 2.44512,40.003469 c 0.0143,0.23394 -0.0515,0.43853 -0.1973,0.61377 -0.14584,0.17524 -0.33573,0.27 -0.56965,0.2843 l -7.13513,0.43612 c -0.23394,0.0143 -0.43882,-0.0563 -0.61466,-0.21192 -0.17583,-0.15558 -0.2709,-0.35033 -0.2852,-0.58427 z"
     style="font-size:60px;font-style:normal;font-variant:normal;font-weight:bold;font-stretch:normal;letter-spacing:8.88000011px;fill:#62676c;fill-opacity:1;font-family:Liberator;-inkscape-font-specification:Liberator Bold"
     id="path3853"
     inkscape:connector-curvature="0" /><path
     d="m 331.55968,122.93402 -2.12536,-40.197755 c -0.0124,-0.234007 0.0599,-0.438306 0.21696,-0.612897 0.15702,-0.174507 0.3428,-0.267454 0.55735,-0.278839 l 19.07491,-1.008545 c 0.077,-0.02358 0.15447,-0.03746 0.23251,-0.04163 0.46807,-0.02471 0.91825,0.166634 1.35055,0.574024 l 3.60393,3.241972 c 0.22586,0.203239 0.39504,0.443665 0.50754,0.721278 0.11245,0.277691 0.17281,0.494533 0.18109,0.650526 l -0.0153,0.264851 0.80436,15.213125 c 0.12637,0.54098 -0.0413,1.06815 -0.50314,1.58151 l -3.24197,3.60393 -0.16935,0.12631 6.90959,14.71429 c 0.0215,0.038 0.0333,0.0765 0.0354,0.11548 0.007,0.13653 -0.0631,0.28694 -0.21084,0.45122 -0.18476,0.20535 -0.39415,0.31421 -0.62817,0.32659 l -8.01614,0.42383 c -0.21457,0.0113 -0.42888,-0.0653 -0.64293,-0.23004 -0.21409,-0.16471 -0.37556,-0.35176 -0.4844,-0.56115 l -6.64924,-14.22932 -2.75007,0.1454 0.76878,14.54024 c 0.0113,0.21455 -0.0613,0.41397 -0.21774,0.59827 -0.15651,0.1843 -0.35179,0.28264 -0.58582,0.29501 l -7.13847,0.37744 c -0.19504,0.0103 -0.38497,-0.0677 -0.56978,-0.23392 -0.18483,-0.16625 -0.28291,-0.35665 -0.29425,-0.5712 z m 7.57168,-23.811894 6.29004,-0.332572 c 0.13651,-0.0072 0.26943,-0.08268 0.39876,-0.226448 l 0.91595,-0.987239 c 0.0739,-0.08211 0.1185,-0.162708 0.1339,-0.241782 0.0154,-0.07902 0.022,-0.138048 0.02,-0.177083 l -0.005,-0.08777 -0.297,-5.617154 c 0.0297,-0.177566 -0.0376,-0.340256 -0.20183,-0.488071 l -1.01495,-0.885146 c -0.0411,-0.03691 -0.0868,-0.06872 -0.13706,-0.09544 -0.0503,-0.02664 -0.0952,-0.04383 -0.13475,-0.05155 -0.0395,-0.0077 -0.0739,-0.01073 -0.10317,-0.0092 -0.0293,0.0016 -0.0537,0.0029 -0.0731,0.0039 l -0.0293,0.0015 -6.23153,0.329479 z"
     style="font-size:60px;font-style:normal;font-variant:normal;font-weight:bold;font-stretch:normal;letter-spacing:8.88000011px;fill:#62676c;fill-opacity:1;font-family:Liberator;-inkscape-font-specification:Liberator Bold"
     id="path3855"
     inkscape:connector-curvature="0" /><path
     d="m 372.59146,120.86332 -1.78371,-40.038411 c -0.0104,-0.234101 0.0638,-0.432914 0.2227,-0.59644 0.1589,-0.163442 0.35542,-0.250399 0.58956,-0.260872 l 7.14135,-0.318147 c 0.23414,-0.01039 0.43273,0.05897 0.59579,0.208065 0.16304,0.149183 0.24978,0.340825 0.26022,0.574926 l 1.78371,40.038409 c 0.0104,0.23415 -0.0587,0.43762 -0.20741,0.61043 -0.14872,0.1728 -0.34014,0.26442 -0.57428,0.27485 l -7.14135,0.31815 c -0.23415,0.0104 -0.43784,-0.0636 -0.61107,-0.22205 -0.17325,-0.15846 -0.26508,-0.35476 -0.27551,-0.58891 z"
     style="font-size:60px;font-style:normal;font-variant:normal;font-weight:bold;font-stretch:normal;letter-spacing:8.88000011px;fill:#62676c;fill-opacity:1;font-family:Liberator;-inkscape-font-specification:Liberator Bold"
     id="path3857"
     inkscape:connector-curvature="0" /><path
     d="m 395.08026,119.86907 10.45399,-40.593803 -0.002,-0.05856 c 0.23354,-0.575056 0.50647,-0.868175 0.81878,-0.879359 l 2.63505,-0.094 1.84453,-0.0658 2.63504,-0.094 c 0.37084,-0.01319 0.66395,0.259739 0.87936,0.81878 l 0.002,0.05856 c 1.46719,4.423198 3.68247,11.052531 6.64585,19.888019 2.96333,8.835533 5.18803,15.454753 6.6741,19.857693 0.0209,0.0384 0.032,0.077 0.0334,0.11607 0.005,0.13664 -0.0778,0.28616 -0.24783,0.44858 -0.20778,0.20285 -0.42877,0.30845 -0.66296,0.3168 l -6.85111,0.2444 c -0.21473,0.008 -0.4277,-0.0727 -0.63888,-0.24105 -0.21124,-0.16835 -0.36948,-0.35815 -0.47471,-0.56937 l -1.60801,-4.80901 -12.03336,0.42926 -1.26126,4.91137 c -0.0899,0.21819 -0.23425,0.41877 -0.43292,0.60175 -0.19869,0.18299 -0.40538,0.27831 -0.62008,0.28596 l -6.85111,0.24441 c -0.23423,0.008 -0.46218,-0.0812 -0.68385,-0.26877 -0.18054,-0.13036 -0.2736,-0.27362 -0.27917,-0.42977 -0.001,-0.039 0.007,-0.0784 0.0251,-0.11816 z m 12.21584,-13.39323 7.23173,-0.25798 -4.01062,-12.169441 z"
     style="font-size:60px;font-style:normal;font-variant:normal;font-weight:bold;font-stretch:normal;letter-spacing:8.88000011px;fill:#62676c;fill-opacity:1;font-family:Liberator;-inkscape-font-specification:Liberator Bold"
     id="path3859"
     inkscape:connector-curvature="0" /><path
     d="m 442.02936,113.42746 -0.14017,-5.79908 c -0.006,-0.2343 0.0822,-0.43668 0.26372,-0.60714 0.18148,-0.17044 0.38938,-0.2585 0.62369,-0.26417 l 7.05848,-0.17061 c 0.2343,-0.006 0.43644,0.0725 0.60643,0.23444 0.16997,0.16197 0.25779,0.3601 0.26346,0.59439 l 0.0651,2.69453 7.55639,-0.18265 c 0.0781,-0.002 0.17429,-0.0628 0.28863,-0.18281 l 1.00173,-0.99129 0.16441,-0.47286 -0.10902,-4.5104 c -0.004,-0.15619 -0.0661,-0.31098 -0.18706,-0.46437 l -1.04845,-0.94173 c -0.12001,-0.11431 -0.21905,-0.17052 -0.29713,-0.16865 l -10.80739,0.26122 c -0.54578,0.0523 -1.06864,-0.15976 -1.56857,-0.63611 l -3.41957,-3.258168 c -0.21997,-0.209568 -0.38684,-0.444862 -0.5006,-0.705883 -0.11377,-0.260977 -0.17253,-0.469579 -0.17631,-0.625805 l 0.0236,-0.235014 -0.0586,0.0014 -0.34334,-14.204835 0.0586,-0.0014 c -0.0913,-0.544791 0.10119,-1.067173 0.57753,-1.567147 l 3.25746,-3.44886 c 0.20911,-0.239457 0.44417,-0.416086 0.70517,-0.52989 0.261,-0.11372 0.4696,-0.172488 0.62581,-0.176306 l 0.20502,-0.005 15.5521,-0.375906 c 0.0776,-0.02137 0.14571,-0.03279 0.20431,-0.03424 0.46859,-0.01128 0.92334,0.212167 1.36425,0.670355 l 3.44957,3.286746 c 0.21994,0.209628 0.38681,0.444922 0.5006,0.705883 0.11373,0.261037 0.1725,0.469639 0.1763,0.625806 l 0.005,0.205018 -0.0586,0.0014 0.06,0.05716 0.14937,6.179836 c 0.006,0.234337 -0.0774,0.436598 -0.24908,0.606782 -0.17175,0.170245 -0.37476,0.258184 -0.60904,0.263817 l -7.08778,0.171317 c -0.23432,0.0057 -0.43647,-0.07245 -0.60642,-0.234438 -0.17,-0.161925 -0.25782,-0.360056 -0.26347,-0.594393 l -0.0722,-2.987409 -7.43923,0.179812 c -0.15622,0.0038 -0.29148,0.06569 -0.40579,0.185641 l -0.94386,0.960588 c -0.0762,0.08002 -0.13291,0.15954 -0.17007,0.238554 -0.0372,0.07908 -0.0553,0.138126 -0.0543,0.177146 l 0.002,0.08787 0.11751,4.861861 0.0572,-0.05999 c -0.0353,0.157175 0.0271,0.311964 0.18705,0.464366 l 0.86989,0.828831 11.21743,-0.271134 c 0.54433,-0.110816 1.06695,0.09146 1.56786,0.606823 l 3.44956,3.286746 c 0.21995,0.209612 0.38681,0.444906 0.5006,0.705883 0.11374,0.261021 0.17227,0.45986 0.1756,0.596517 l 0.006,0.234307 0.34405,14.234123 c 0.001,0.0586 0.003,0.11716 0.004,0.17573 0.0118,0.48814 -0.19192,0.95218 -0.61107,1.39212 l -3.28745,3.42028 c -0.20962,0.21998 -0.44479,0.39172 -0.70553,0.51525 -0.26079,0.12352 -0.45951,0.18694 -0.59616,0.19024 l -0.23431,0.006 -15.5521,0.37591 c -0.0391,9.4e-4 -0.0781,0.002 -0.11715,0.003 -0.50767,0.0123 -0.99148,-0.20071 -1.45141,-0.63894 l -3.41957,-3.25817 c -0.21998,-0.20958 -0.38685,-0.44488 -0.5006,-0.70588 -0.11377,-0.26099 -0.1723,-0.45983 -0.1756,-0.59652 l 0.0236,-0.23501 c -0.0405,-0.0576 -0.0612,-0.10597 -0.0621,-0.14503 z"
     style="font-size:60px;font-style:normal;font-variant:normal;font-weight:bold;font-stretch:normal;letter-spacing:8.88000011px;fill:#62676c;fill-opacity:1;font-family:Liberator;-inkscape-font-specification:Liberator Bold"
     id="path3861"
     inkscape:connector-curvature="0" /><path
     d="m 483.37004,117.35933 11.38984,-40.341227 -7.3e-4,-0.05859 c 0.24677,-0.569502 0.5264,-0.856232 0.83889,-0.86019 l 2.63651,-0.03305 1.84556,-0.02313 2.63651,-0.03305 c 0.37105,-0.0046 0.65778,0.275022 0.86019,0.838894 l 7.4e-4,0.05859 c 1.36452,4.455941 3.42592,11.134726 6.18421,20.036374 2.75823,8.901689 4.82927,15.570589 6.21314,20.006709 0.02,0.0388 0.0302,0.0778 0.0308,0.11681 0.002,0.13671 -0.0844,0.28429 -0.25814,0.44273 -0.21242,0.19799 -0.43578,0.29845 -0.67011,0.30139 l -6.85493,0.0859 c -0.21485,0.003 -0.4259,-0.0825 -0.63314,-0.25575 -0.20729,-0.1732 -0.36109,-0.3666 -0.4614,-0.5802 l -1.49639,-4.84491 -12.04007,0.1509 -1.37448,4.88089 c -0.095,0.21606 -0.24388,0.41325 -0.44673,0.59159 -0.20286,0.17833 -0.41171,0.26885 -0.62652,0.27154 l -6.85493,0.0859 c -0.23436,0.003 -0.46018,-0.0919 -0.67745,-0.2845 -0.17748,-0.13451 -0.2672,-0.27988 -0.26916,-0.43612 -4.9e-4,-0.0391 0.009,-0.0782 0.0278,-0.11754 z m 12.52226,-13.10719 7.23576,-0.0907 -3.72815,-12.258923 z"
     style="font-size:60px;font-style:normal;font-variant:normal;font-weight:bold;font-stretch:normal;letter-spacing:8.88000011px;fill:#62676c;fill-opacity:1;font-family:Liberator;-inkscape-font-specification:Liberator Bold"
     id="path3863"
     inkscape:connector-curvature="0" /><path
     d="m 559.31235,102.35387 0.0501,-7.148267 c 0.002,-0.234346 0.086,-0.433955 0.25322,-0.598826 0.16717,-0.164826 0.36794,-0.246429 0.60232,-0.24481 l 8.3201,0.05829 0.0583,-8.320108 c 10e-4,-0.214807 0.0859,-0.409533 0.25312,-0.584179 0.16723,-0.174581 0.36803,-0.261067 0.60242,-0.259457 l 7.08967,0.04967 c 0.23434,0.0017 0.4388,0.091 0.61337,0.267976 0.17452,0.17704 0.26104,0.372964 0.25956,0.587771 l -0.0583,8.320108 8.40799,0.05891 c 0.19514,0.02092 0.36539,0.11489 0.51074,0.281905 0.14528,0.167061 0.21719,0.357999 0.21572,0.572815 l -0.0501,7.148262 c -0.003,0.42969 -0.24895,0.68188 -0.73774,0.75657 l -4.1e-4,0.0586 -8.40799,-0.0589 -0.0589,8.408 -0.0586,-4.1e-4 c -0.0818,0.52679 -0.35712,0.78854 -0.82584,0.78525 l -7.08967,-0.0497 c -0.19532,-0.001 -0.37543,-0.0808 -0.54033,-0.23817 -0.16493,-0.1574 -0.26617,-0.34366 -0.30371,-0.55878 l 0.0589,-8.408 -8.3201,-0.0583 c -0.23438,-0.002 -0.43399,-0.086 -0.59883,-0.25323 -0.16485,-0.16715 -0.24653,-0.35816 -0.24502,-0.57301 z"
     style="font-size:60px;font-style:normal;font-variant:normal;font-weight:bold;font-stretch:normal;letter-spacing:8.88000011px;fill:#62676c;fill-opacity:1;font-family:Liberator;-inkscape-font-specification:Liberator Bold"
     id="path3865"
     inkscape:connector-curvature="0" /><path
     d="m 630.27278,117.7605 2.70492,-40.019195 0.005,-0.175716 c 0.0644,-0.213123 0.19614,-0.385372 0.39512,-0.516749 0.039,0.0011 0.0786,-0.01735 0.11874,-0.05537 0.0781,0.0022 0.1372,-0.01575 0.17732,-0.05377 l 7.61435,0.207959 c 0.40999,0.01124 0.70567,0.273316 0.88707,0.78623 l 4.75594,23.312361 0.536,5.05558 0.60615,-5.02438 6.92915,-22.99323 c 0.13098,-0.504383 0.44054,-0.749929 0.92866,-0.736639 l 7.61435,0.207959 c 0.038,0.04015 0.096,0.06128 0.17412,0.06337 l 0.057,0.06017 c 0.17248,0.121984 0.28482,0.300898 0.33703,0.536745 l -0.003,0.117144 c 0.039,0.0011 0.058,0.02116 0.057,0.06017 l 0.48725,40.106371 c -0.006,0.23429 -0.0949,0.43215 -0.26532,0.59357 -0.17053,0.16142 -0.37291,0.23893 -0.60716,0.23253 l -7.0872,-0.19356 c -0.23432,-0.006 -0.43706,-0.095 -0.60821,-0.26573 -0.17121,-0.17075 -0.2536,-0.37327 -0.24718,-0.60756 l 0.15075,-15.17732 -5.01542,15.16169 c -0.1035,0.2121 -0.26015,0.40321 -0.46992,0.57332 -0.20983,0.17012 -0.42211,0.25224 -0.63685,0.24638 l -4.8029,-0.13117 c -0.42954,-0.0117 -0.80253,-0.30523 -1.11895,-0.88049 l -4.1511,-15.41204 -0.70717,15.16212 c -0.006,0.23429 -0.0949,0.43214 -0.26533,0.59357 -0.1705,0.16142 -0.37289,0.23893 -0.60716,0.23253 l -7.11649,-0.19436 c -0.21477,-0.006 -0.40774,-0.0942 -0.57892,-0.26493 -0.17119,-0.17075 -0.25358,-0.37327 -0.24718,-0.60756 z"
     style="font-size:60px;font-style:normal;font-variant:normal;font-weight:bold;font-stretch:normal;letter-spacing:8.88000011px;fill:#62676c;fill-opacity:1;font-family:Liberator;-inkscape-font-specification:Liberator Bold"
     id="path3867"
     inkscape:connector-curvature="0" /><path
     d="m 679.04131,119.22695 1.4906,-40.050398 c 0.009,-0.234172 0.0989,-0.426262 0.27064,-0.57627 0.17171,-0.149926 0.37467,-0.220551 0.60889,-0.211876 l 7.14349,0.265867 c 0.2342,0.0088 0.42647,0.09409 0.57682,0.256005 0.15031,0.161994 0.22112,0.360077 0.21242,0.594249 l -1.4906,40.050393 c -0.009,0.23422 -0.0942,0.43137 -0.25655,0.59146 -0.16233,0.16009 -0.36059,0.23577 -0.59479,0.22706 l -7.1435,-0.26587 c -0.23421,-0.009 -0.43118,-0.0991 -0.5909,-0.27119 -0.15973,-0.17207 -0.23524,-0.37522 -0.22652,-0.60943 z"
     style="font-size:60px;font-style:normal;font-variant:normal;font-weight:bold;font-stretch:normal;letter-spacing:8.88000011px;fill:#62676c;fill-opacity:1;font-family:Liberator;-inkscape-font-specification:Liberator Bold"
     id="path3869"
     inkscape:connector-curvature="0" /><path
     d="m 703.17488,120.1561 1.85997,-40.210913 c 0.0108,-0.234084 0.10299,-0.43023 0.27651,-0.588438 0.1735,-0.158126 0.36756,-0.232246 0.58218,-0.222361 l 19.08116,0.882606 c 0.0789,-0.01586 0.15741,-0.022 0.23548,-0.01844 0.46822,0.0217 0.89728,0.256619 1.28717,0.704759 l 3.26569,3.582455 c 0.20466,0.224578 0.34923,0.480554 0.43373,0.767931 0.0844,0.287449 0.12306,0.509197 0.11587,0.665244 l -0.0414,0.262037 -0.70392,15.21811 c 0.0723,0.55082 -0.14676,1.05882 -0.65705,1.524 l -3.58246,3.26569 -0.18101,0.10894 5.42071,15.32543 c 0.0177,0.0399 0.0256,0.0794 0.0239,0.11842 -0.006,0.13657 -0.0911,0.27929 -0.25443,0.42815 -0.20415,0.18608 -0.42328,0.27371 -0.65738,0.26288 l -8.01877,-0.37091 c -0.21463,-0.01 -0.42031,-0.10743 -0.61702,-0.2925 -0.19676,-0.18507 -0.33894,-0.38717 -0.42655,-0.60629 l -5.20959,-14.81709 -2.75097,-0.12725 -0.67278,14.545 c -0.01,0.21461 -0.10189,0.40588 -0.27583,0.57381 -0.17398,0.16792 -0.37802,0.24646 -0.61213,0.23563 l -7.1408,-0.3303 c -0.19511,-0.009 -0.3764,-0.10539 -0.54387,-0.28911 -0.16747,-0.18371 -0.24624,-0.38288 -0.23631,-0.59749 z m 9.88918,-22.946476 6.2921,0.291043 c 0.13656,0.0063 0.27629,-0.05563 0.4192,-0.185907 l 1.00908,-0.891827 c 0.0816,-0.07441 0.13402,-0.150193 0.15716,-0.227356 0.0231,-0.07712 0.0356,-0.135195 0.0374,-0.17424 l 0.004,-0.0878 0.2599,-5.618992 c 0.0471,-0.173758 -0.004,-0.342304 -0.15258,-0.505637 l -0.92244,-0.981171 c -0.0372,-0.04079 -0.0796,-0.07697 -0.12696,-0.108521 -0.0474,-0.03149 -0.0904,-0.05303 -0.12899,-0.06462 -0.0386,-0.01153 -0.0725,-0.01798 -0.10175,-0.01937 -0.0293,-0.0013 -0.0537,-0.0024 -0.0732,-0.0034 l -0.0293,-0.0014 -6.23357,-0.288336 z"
     style="font-size:60px;font-style:normal;font-variant:normal;font-weight:bold;font-stretch:normal;letter-spacing:8.88000011px;fill:#62676c;fill-opacity:1;font-family:Liberator;-inkscape-font-specification:Liberator Bold"
     id="path3871"
     inkscape:connector-curvature="0" /><path
     d="m 744.76928,122.17588 2.31319,-40.187384 c 0.0135,-0.233946 0.10783,-0.429041 0.28312,-0.585283 0.17528,-0.15616 0.37991,-0.227526 0.61391,-0.2141 l 21.7901,1.254238 c 0.21446,0.01239 0.40468,0.10648 0.57066,0.282283 0.16592,0.175882 0.24216,0.380797 0.22872,0.614745 l -0.41078,7.136625 c -0.0135,0.23402 -0.11275,0.428833 -0.29775,0.584441 -0.18506,0.155672 -0.38482,0.227319 -0.59928,0.214942 l -13.83452,-0.796315 -0.44446,7.721594 10.58795,0.609442 c 0.23396,0.01349 0.42934,0.102992 0.58612,0.2685 0.15674,0.165556 0.22839,0.365315 0.21494,0.599279 l -0.41078,7.136623 c -0.0135,0.23401 -0.10787,0.4291 -0.28312,0.58529 -0.17531,0.15621 -0.37994,0.22758 -0.61391,0.2141 l -10.58794,-0.60945 -0.44446,7.7216 13.83453,0.79631 c 0.21446,0.0124 0.40468,0.10645 0.57066,0.28229 0.16592,0.17584 0.24216,0.38076 0.22872,0.61474 l -0.4091,7.10738 c -0.0135,0.23398 -0.11275,0.4288 -0.29775,0.58444 -0.18506,0.15564 -0.38482,0.22728 -0.59928,0.21494 l -21.7901,-1.25424 c -0.234,-0.0135 -0.42909,-0.10784 -0.58529,-0.28312 -0.1562,-0.17528 -0.22757,-0.37992 -0.2141,-0.61391 z"
     style="font-size:60px;font-style:normal;font-variant:normal;font-weight:bold;font-stretch:normal;letter-spacing:8.88000011px;fill:#62676c;fill-opacity:1;font-family:Liberator;-inkscape-font-specification:Liberator Bold"
     id="path3873"
     inkscape:connector-curvature="0" /><path
     d="m 784.17475,124.52834 2.76945,-40.158522 0.0584,0.004 c 0.0511,-0.172636 0.16377,-0.31659 0.33813,-0.431862 0.17435,-0.115189 0.35896,-0.166086 0.55381,-0.152689 l 7.04382,0.485762 c 0.19484,0.01348 0.3707,0.08923 0.52761,0.227267 0.15687,0.138115 0.24875,0.296178 0.27564,0.47419 l -2.2212,32.208654 16.04587,1.10657 c 0.23379,0.0161 0.43234,0.11793 0.59564,0.30538 0.16324,0.18746 0.23748,0.38836 0.22273,0.60269 l -0.48979,7.10227 c -0.0161,0.23382 -0.11761,0.42749 -0.30437,0.58102 -0.18681,0.15353 -0.39712,0.22223 -0.63091,0.20611 l -23.93728,-1.65079 c -0.23383,-0.0161 -0.43758,-0.11338 -0.61126,-0.29177 -0.17369,-0.17838 -0.25247,-0.38449 -0.23634,-0.61831 z"
     style="font-size:60px;font-style:normal;font-variant:normal;font-weight:bold;font-stretch:normal;letter-spacing:8.88000011px;fill:#62676c;fill-opacity:1;font-family:Liberator;-inkscape-font-specification:Liberator Bold"
     id="path3875"
     inkscape:connector-curvature="0" /><path
     d="m 825.77125,127.49451 3.22769,-40.12429 c 0.0188,-0.23358 0.11758,-0.426475 0.29638,-0.578685 0.17878,-0.152128 0.38499,-0.218816 0.61862,-0.200065 l 21.75589,1.750094 c 0.21412,0.01727 0.40215,0.115668 0.56408,0.295204 0.16188,0.179615 0.23343,0.386213 0.21467,0.619794 l -0.57318,7.12542 c -0.0188,0.233652 -0.12249,0.426155 -0.31098,0.577511 -0.18856,0.151417 -0.3899,0.218497 -0.60402,0.201239 l -13.81281,-1.111133 -0.62016,7.709471 10.57132,0.85038 c 0.23359,0.0188 0.42688,0.11274 0.57986,0.28178 0.15292,0.16908 0.22,0.37042 0.20124,0.60402 l -0.57319,7.12542 c -0.0188,0.23363 -0.11761,0.42653 -0.29638,0.57868 -0.17882,0.15219 -0.38502,0.21887 -0.61862,0.20007 l -10.57132,-0.85038 -0.62017,7.70947 13.81281,1.11113 c 0.21412,0.0172 0.40215,0.11563 0.56408,0.2952 0.16188,0.17959 0.23343,0.38618 0.21467,0.6198 l -0.57084,7.09622 c -0.0188,0.23361 -0.12248,0.42612 -0.31098,0.57751 -0.18855,0.15138 -0.38989,0.21846 -0.60402,0.20124 L 826.55,128.40951 c -0.23363,-0.0188 -0.42652,-0.11758 -0.57869,-0.29638 -0.15217,-0.17879 -0.21886,-0.385 -0.20006,-0.61862 z"
     style="font-size:60px;font-style:normal;font-variant:normal;font-weight:bold;font-stretch:normal;letter-spacing:8.88000011px;fill:#62676c;fill-opacity:1;font-family:Liberator;-inkscape-font-specification:Liberator Bold"
     id="path3877"
     inkscape:connector-curvature="0" /></g></svg>