<?xml version="1.0" encoding="UTF-8" standalone="no"?>
<!-- Generator: Adobe Illustrator 17.0.0, SVG Export Plug-In . SVG Version: 6.00 Build 0)  -->

<svg
   xmlns:dc="http://purl.org/dc/elements/1.1/"
   xmlns:cc="http://creativecommons.org/ns#"
   xmlns:rdf="http://www.w3.org/1999/02/22-rdf-syntax-ns#"
   xmlns:svg="http://www.w3.org/2000/svg"
   xmlns="http://www.w3.org/2000/svg"
   xmlns:sodipodi="http://sodipodi.sourceforge.net/DTD/sodipodi-0.dtd"
   xmlns:inkscape="http://www.inkscape.org/namespaces/inkscape"
   version="1.1"
   id="Layer_1"
   x="0px"
   y="0px"
   width="1094px"
   height="209px"
   viewBox="0 0 1094 209"
   style="enable-background:new 0 0 1094 209;"
   xml:space="preserve"
   inkscape:version="0.48.5 r10040"
   sodipodi:docname="wedding-party.svg"><metadata
   id="metadata65"><rdf:RDF><cc:Work
       rdf:about=""><dc:format>image/svg+xml</dc:format><dc:type
         rdf:resource="http://purl.org/dc/dcmitype/StillImage" /></cc:Work></rdf:RDF></metadata><defs
   id="defs63">
	

		
		
	</defs><sodipodi:namedview
   pagecolor="#ffffff"
   bordercolor="#666666"
   borderopacity="1"
   objecttolerance="10"
   gridtolerance="10"
   guidetolerance="10"
   inkscape:pageopacity="0"
   inkscape:pageshadow="2"
   inkscape:window-width="1680"
   inkscape:window-height="997"
   id="namedview61"
   showgrid="false"
   inkscape:zoom="0.68555759"
   inkscape:cx="457.23133"
   inkscape:cy="-36.190364"
   inkscape:window-x="1276"
   inkscape:window-y="-4"
   inkscape:window-maximized="1"
   inkscape:current-layer="Layer_1" />
<style
   type="text/css"
   id="style3">
	.st0{fill:#62676C;}
	.st1{fill:#50555B;}
	.st2{fill:#393D42;}
	.st3{fill:none;stroke:#989CA3;stroke-width:3;stroke-linecap:round;stroke-linejoin:round;stroke-miterlimit:10;}
	.st4{fill:#FFF7E4;}
	.st5{fill:#FFFFFF;}
	.st6{fill:#E9EFD7;}
	.st7{fill:#E8ECD5;}
</style>
<g
   id="g9">
			<g
   id="g11">
				<path
   class="st0"
   d="M 1055.6,184.3 C 994.4,174.8 933.1,167 871.5,160.8 c 2.9,-29.4 5.8,-58.7 8.7,-88.1 63.2,6.4 126.2,14.5 189,24.2 -12.3,13.9 -24.4,28 -36.5,42.1 7.8,15 15.4,30.1 22.9,45.3 z"
   id="path13"
   inkscape:connector-curvature="0"
   style="fill:#62676c" />
				<path
   class="st5"
   d="m 1060.4,187.9 c -63.7,-10 -127.7,-18.2 -191.9,-24.6 3.1,-31.2 6.1,-62.4 9.2,-93.5 65.9,6.6 131.6,15 197,25.3 -13,14.7 -25.9,29.5 -38.7,44.4 8.3,16 16.4,32.1 24.4,48.4 z M 874.6,158.3 c 58.9,6 117.7,13.5 176.2,22.5 -7,-14.1 -14.1,-28.2 -21.3,-42.3 11.4,-13.3 22.9,-26.6 34.4,-39.7 -60.2,-9.2 -120.5,-16.9 -181.1,-23.1 -2.7,27.5 -5.5,55.1 -8.2,82.6 z"
   id="path15"
   inkscape:connector-curvature="0"
   style="fill:#ffffff" />
			</g>
			<g
   id="g17">
				<path
   class="st0"
   d="m 24.7,96.9 c 62.8,-9.7 125.8,-17.8 189,-24.2 2.9,29.4 5.8,58.7 8.7,88.1 -61.6,6.2 -122.9,14.1 -184.1,23.5 7.2,-17 14.6,-34 22,-51 C 48.6,121.1 36.6,109 24.7,96.9 z"
   id="path19"
   inkscape:connector-curvature="0"
   style="fill:#62676c" />
				<path
   class="st5"
   d="m 225.5,163.2 c -64.1,6.4 -127.9,14.6 -191.5,24.6 7.6,-18 15.3,-36 23.2,-53.9 C 44.5,120.8 31.8,107.9 19,95 84.6,84.7 150.3,76.3 216.4,69.7 c 2.9,31.2 6,62.4 9.1,93.5 z M 42.8,180.9 c 58.7,-9 117.5,-16.5 176.6,-22.5 -2.8,-27.5 -5.5,-55.1 -8.3,-82.6 -60.4,6.2 -120.6,13.8 -180.7,23 11.1,11.3 22.2,22.6 33.2,34 -7,16 -13.9,32 -20.8,48.1 z"
   id="path21"
   inkscape:connector-curvature="0"
   style="fill:#ffffff" />
			</g>
			<g
   id="g23">
				<path
   class="st0"
   d="M 986.4,140.5 C 698.1,102.6 406.4,102.1 118,139.1 113.6,105.7 109.3,72.2 104.9,38.8 402.2,0.6 702.8,1.1 999.8,40.2 995.4,73.6 990.9,107 986.4,140.5 z"
   id="path25"
   inkscape:connector-curvature="0"
   style="fill:#62676c" />
				<path
   class="st5"
   d="M 988.8,143.6 C 698.9,105.2 405.6,104.8 115.6,142.2 111,107 106.4,71.7 101.7,36.5 401,-2.2 703.8,-1.7 1003,37.9 c -4.7,35.2 -9.4,70.4 -14.2,105.7 z M 120.5,136 c 286.8,-36.5 576.9,-36.1 863.6,1.4 4.2,-31.6 8.4,-63.2 12.6,-94.9 -295,-38.6 -593.4,-39 -888.5,-1.4 4.1,31.6 8.2,63.3 12.3,94.9 z"
   id="path27"
   inkscape:connector-curvature="0"
   style="fill:#ffffff" />
			</g>
		</g>
<g
   transform="translate(2.0628662,-27.848693)"
   style="font-size:40px;font-style:normal;font-variant:normal;font-weight:bold;font-stretch:normal;line-height:125%;letter-spacing:0px;word-spacing:0px;fill:#e9efd7;fill-opacity:1;stroke:none;font-family:Liberator;-inkscape-font-specification:Liberator Bold"
   id="text3042"><path
     d="m 226.08905,117.0912 -0.57045,-5.77267 c -0.023,-0.23323 0.0496,-0.44157 0.21791,-0.62504 0.16832,-0.18345 0.3691,-0.2867 0.60234,-0.30976 l 7.02632,-0.69433 c 0.23323,-0.023 0.44062,0.0399 0.62217,0.18875 0.18152,0.1489 0.28382,0.33996 0.30687,0.57319 l 0.26506,2.68224 7.52196,-0.7433 c 0.0777,-0.008 0.16915,-0.0756 0.27426,-0.20374 l 0.92535,-1.06295 0.12883,-0.48377 -0.44368,-4.48985 c -0.0154,-0.15547 -0.0891,-0.3052 -0.22103,-0.44919 l -1.11549,-0.86127 c -0.12817,-0.10508 -0.23111,-0.15378 -0.30884,-0.14612 l -10.75815,1.06311 c -0.54039,0.0927 -1.07754,-0.08 -1.61147,-0.51787 l -3.65209,-2.99522 c -0.23493,-0.19265 -0.41881,-0.4149 -0.55164,-0.66675 -0.13284,-0.25181 -0.20693,-0.45547 -0.2223,-0.61099 l 0.006,-0.23612 -0.0583,0.006 -1.39731,-14.140109 0.0583,-0.0058 c -0.13152,-0.536504 0.0217,-1.07174 0.45956,-1.60571 l 2.99233,-3.681249 c 0.19075,-0.254325 0.41205,-0.447923 0.66388,-0.580796 0.25183,-0.132788 0.45549,-0.206886 0.61098,-0.222294 l 0.20409,-0.02017 15.48123,-1.529835 c 0.0758,-0.02708 0.14288,-0.04352 0.20121,-0.04932 0.46645,-0.04605 0.93654,0.143011 1.41027,0.567189 l 3.68413,3.02149 c 0.2349,0.192715 0.41878,0.414967 0.55164,0.666757 0.1328,0.25187 0.2069,0.455531 0.22229,0.610984 l 0.0202,0.204084 -0.0583,0.0058 0.0641,0.05255 0.6079,6.151678 c 0.023,0.233271 -0.0448,0.441139 -0.20333,0.623604 -0.15863,0.182529 -0.35455,0.285302 -0.58776,0.308318 l -7.05548,0.697213 c -0.23326,0.02308 -0.44065,-0.03984 -0.62217,-0.188755 -0.18155,-0.148853 -0.28384,-0.339915 -0.30687,-0.573186 l -0.29387,-2.973797 -7.40534,0.731786 c -0.1555,0.0154 -0.28579,0.08715 -0.39088,0.215264 l -0.86992,1.02803 c -0.0701,0.08546 -0.1207,0.168971 -0.15188,0.250525 -0.0312,0.08162 -0.0449,0.141851 -0.041,0.180692 l 0.009,0.08746 0.47826,4.839709 0.0525,-0.06407 c -0.0235,0.159362 0.0502,0.309092 0.22103,0.449192 l 0.92904,0.76194 11.16632,-1.10344 c 0.53459,-0.150934 1.07079,0.01197 1.60859,0.488712 l 3.68413,3.02149 c 0.2349,0.192698 0.41878,0.414951 0.55164,0.666757 0.1328,0.251853 0.20594,0.445797 0.21941,0.581827 l 0.0231,0.23324 1.40019,14.16927 c 0.006,0.0583 0.0115,0.11663 0.0173,0.17493 0.048,0.48592 -0.12067,0.96381 -0.50599,1.43366 l -3.02437,3.65497 c -0.19271,0.23494 -0.41448,0.42368 -0.66532,0.56622 -0.2509,0.14255 -0.44436,0.22055 -0.58039,0.23399 l -0.23324,0.0231 -15.48123,1.52984 c -0.0389,0.004 -0.0778,0.008 -0.11662,0.0115 -0.50536,0.0499 -1.00365,-0.12652 -1.49486,-0.52939 l -3.65209,-2.99522 c -0.23494,-0.19267 -0.41882,-0.41492 -0.55164,-0.66675 -0.13284,-0.25183 -0.20597,-0.44577 -0.21942,-0.58183 l 0.006,-0.23612 c -0.0446,-0.0545 -0.0689,-0.10114 -0.0727,-0.14001 z"
     style="font-size:60px;font-style:normal;font-variant:normal;font-weight:bold;font-stretch:normal;letter-spacing:6px;fill:#e9efd7;fill-opacity:1;font-family:Liberator;-inkscape-font-specification:Liberator Bold"
     id="path3873" /><path
     d="m 264.74425,118.22298 8.49117,-41.049276 -0.005,-0.05839 c 0.20564,-0.585614 0.46416,-0.89151 0.77558,-0.917689 l 2.62748,-0.220519 1.83924,-0.154363 2.62748,-0.220519 c 0.36977,-0.03099 0.67567,0.227533 0.91769,0.775576 l 0.005,0.05839 c 1.67805,4.347582 4.20935,10.8628 7.5939,19.545674 3.3845,8.682916 5.92471,15.187586 7.62065,19.514026 0.0227,0.0373 0.0357,0.0754 0.039,0.11433 0.0114,0.13624 -0.0639,0.28957 -0.22599,0.45997 -0.19779,0.2126 -0.41345,0.32869 -0.64697,0.34829 l -6.83145,0.57335 c -0.21412,0.018 -0.43069,-0.052 -0.64973,-0.21007 -0.21908,-0.15801 -0.38625,-0.33998 -0.50151,-0.5459 l -1.83725,-4.72618 -11.99883,1.00703 -1.02379,4.96631 c -0.0793,0.22226 -0.21385,0.42954 -0.4035,0.62186 -0.18967,0.19232 -0.39155,0.29746 -0.60563,0.31543 l -6.83145,0.57335 c -0.23355,0.0196 -0.46554,-0.0589 -0.69597,-0.23559 -0.1866,-0.12154 -0.28643,-0.26016 -0.2995,-0.41586 -0.003,-0.0389 0.003,-0.0787 0.0194,-0.11923 z m 11.55811,-13.96479 7.21098,-0.60521 -4.59078,-11.962649 z"
     style="font-size:60px;font-style:normal;font-variant:normal;font-weight:bold;font-stretch:normal;letter-spacing:6px;fill:#e9efd7;fill-opacity:1;font-family:Liberator;-inkscape-font-specification:Liberator Bold"
     id="path3875" /><path
     d="m 308.57947,114.65139 -2.78946,-40.15714 c -0.0162,-0.233771 0.0527,-0.439237 0.20681,-0.616399 0.15411,-0.177079 0.33833,-0.273083 0.55266,-0.288013 l 19.05564,-1.323675 c 0.0766,-0.02485 0.15383,-0.04001 0.23178,-0.04547 0.4676,-0.03244 0.92089,0.151436 1.35986,0.551624 l 3.65702,3.181964 c 0.22919,0.199479 0.40232,0.437076 0.51939,0.712792 0.11702,0.275794 0.18096,0.491608 0.19182,0.647444 l -0.011,0.265068 1.05569,15.197753 c 0.13529,0.538816 -0.0237,1.068684 -0.47693,1.589606 l -3.18196,3.657025 -0.16724,0.129086 7.15184,14.598093 c 0.0222,0.0376 0.0346,0.0759 0.0374,0.11487 0.009,0.13639 -0.0584,0.28794 -0.20336,0.45464 -0.18134,0.20838 -0.3889,0.32069 -0.62268,0.33693 l -8.00805,0.55627 c -0.21435,0.0149 -0.4299,-0.0582 -0.64664,-0.21939 -0.21679,-0.16115 -0.38133,-0.3455 -0.49361,-0.55307 l -6.88352,-14.117475 -2.74728,0.190837 1.00899,14.525548 c 0.0149,0.21433 -0.0544,0.41492 -0.20782,0.60178 -0.15345,0.18687 -0.34707,0.28842 -0.58087,0.30466 l -7.13125,0.49536 c -0.19485,0.0135 -0.38604,-0.0613 -0.57358,-0.22446 -0.18754,-0.16318 -0.28875,-0.35193 -0.30364,-0.56626 z m 7.17708,-23.933789 6.28369,-0.436488 c 0.13637,-0.0094 0.26803,-0.08712 0.39496,-0.233007 l 0.89951,-1.002243 c 0.0725,-0.08332 0.1158,-0.164644 0.12989,-0.243962 0.014,-0.07926 0.0197,-0.138393 0.017,-0.177389 l -0.006,-0.08768 -0.38979,-5.611478 c 0.0268,-0.178033 -0.0432,-0.339589 -0.20987,-0.484669 l -1.02944,-0.86825 c -0.0417,-0.03623 -0.0879,-0.06728 -0.13863,-0.09316 -0.0508,-0.02581 -0.096,-0.04225 -0.13558,-0.04932 -0.0397,-0.007 -0.0741,-0.0095 -0.1033,-0.0075 -0.0292,0.0021 -0.0536,0.0038 -0.0731,0.0051 l -0.0292,0.002 -6.22523,0.432427 z"
     style="font-size:60px;font-style:normal;font-variant:normal;font-weight:bold;font-stretch:normal;letter-spacing:6px;fill:#e9efd7;fill-opacity:1;font-family:Liberator;-inkscape-font-specification:Liberator Bold"
     id="path3877" /><path
     d="m 347.19971,112.05887 -2.24669,-40.191159 c -0.0131,-0.233969 0.0538,-0.438212 0.20049,-0.612731 0.14674,-0.174436 0.33712,-0.268215 0.57113,-0.281339 l 19.07179,-1.066113 c 0.039,-0.0021 0.078,-0.0043 0.117,-0.0065 0.507,-0.0283 0.9973,0.169253 1.47092,0.592656 l 3.55193,3.175847 c 0.22647,0.202557 0.40071,0.432449 0.5227,0.689675 0.12195,0.257304 0.18729,0.46394 0.19604,0.619908 l 0.0115,0.204758 0.6655,11.905242 c 0.003,0.05853 0.007,0.117031 0.01,0.175507 0.0283,0.507047 -0.16003,0.987057 -0.56504,1.440032 l -2.20601,2.52941 2.47091,2.209285 c 0.32942,0.294591 0.54405,0.634704 0.64388,1.020341 l 0.0585,-0.0033 0.64097,11.466472 c 0.003,0.0585 0.007,0.11701 0.01,0.17551 0.0272,0.48753 -0.16166,0.95778 -0.56667,1.41078 l -3.17748,3.52268 c -0.20255,0.2265 -0.43216,0.40561 -0.68886,0.53733 -0.25674,0.13172 -0.46311,0.20194 -0.61909,0.21066 l -0.20476,0.0114 -19.07179,1.06611 c -0.23401,0.0131 -0.43365,-0.0589 -0.59892,-0.21593 -0.16528,-0.15704 -0.25445,-0.35256 -0.26753,-0.58657 z m 8.35985,-8.44851 6.81554,-0.38098 0.80086,-0.89571 c 0.10718,-0.18204 0.15805,-0.32181 0.15262,-0.41933 l -0.27144,-4.855697 c -0.009,-0.15599 -0.0749,-0.289226 -0.1984,-0.399706 l -1.08102,-0.966562 c -0.12356,-0.110447 -0.24384,-0.162409 -0.36082,-0.155886 l -6.28901,0.351556 z m -0.92385,-16.526929 6.81553,-0.380988 0.80087,-0.895705 c 0.10717,-0.18202 0.15804,-0.321796 0.15261,-0.419327 l -0.27143,-4.855701 c -0.01,-0.175474 -0.0765,-0.31846 -0.20004,-0.428957 l -1.07938,-0.937311 c -0.0846,-0.112611 -0.20484,-0.164572 -0.36083,-0.155886 l -6.28901,0.351556 z"
     style="font-size:60px;font-style:normal;font-variant:normal;font-weight:bold;font-stretch:normal;letter-spacing:6px;fill:#e9efd7;fill-opacity:1;font-family:Liberator;-inkscape-font-specification:Liberator Bold"
     id="path3879" /><path
     d="m 383.74388,110.07052 10.20133,-40.658039 -0.002,-0.05854 c 0.22996,-0.576498 0.50106,-0.871308 0.8133,-0.884434 l 2.6344,-0.110385 1.84409,-0.07727 2.6344,-0.110385 c 0.37075,-0.01549 0.66556,0.255605 0.88444,0.813295 l 0.002,0.05854 c 1.49467,4.413988 3.75114,11.029416 6.76942,19.846304 3.01821,8.816931 5.28403,15.422194 6.79745,19.815804 0.0211,0.0382 0.0325,0.0768 0.0342,0.11586 0.006,0.1366 -0.076,0.28664 -0.24504,0.45011 -0.20651,0.20413 -0.42684,0.31111 -0.66097,0.32092 l -6.84946,0.287 c -0.21468,0.009 -0.42814,-0.07 -0.64037,-0.23707 -0.21228,-0.16704 -0.3717,-0.35584 -0.47823,-0.56641 l -1.63789,-4.79892 -12.03046,0.50409 -1.23069,4.91912 c -0.0886,0.21875 -0.23165,0.42022 -0.42917,0.60444 -0.19755,0.18421 -0.40365,0.28081 -0.6183,0.28981 l -6.84945,0.287 c -0.23418,0.01 -0.46268,-0.0784 -0.68551,-0.2645 -0.18135,-0.12924 -0.2753,-0.27192 -0.28184,-0.42803 -0.002,-0.039 0.006,-0.0785 0.0244,-0.11831 z m 12.13231,-13.468948 7.22998,-0.302948 -4.08622,-12.144266 z"
     style="font-size:60px;font-style:normal;font-variant:normal;font-weight:bold;font-stretch:normal;letter-spacing:6px;fill:#e9efd7;fill-opacity:1;font-family:Liberator;-inkscape-font-specification:Liberator Bold"
     id="path3881" /><path
     d="m 426.26145,75.373525 -0.19998,-7.087023 c -0.007,-0.23424 0.0803,-0.441854 0.26085,-0.62284 0.18052,-0.180903 0.38791,-0.274681 0.6222,-0.281334 l 23.98459,-0.676801 c 0.23426,-0.0066 0.44661,0.07536 0.63707,0.2458 0.19041,0.17052 0.28893,0.372899 0.29556,0.607139 l 0.19999,7.087023 c 0.007,0.234316 -0.0805,0.437048 -0.26127,0.608197 -0.18082,0.171218 -0.38835,0.260115 -0.62261,0.266692 l -7.61416,0.214857 0.90984,32.243025 c -0.033,0.21586 -0.12566,0.39433 -0.27798,0.5354 -0.15235,0.14107 -0.32613,0.21436 -0.52134,0.21987 l -7.08703,0.19998 c -0.21477,0.006 -0.40719,-0.0618 -0.57726,-0.20352 -0.17009,-0.14175 -0.26765,-0.30996 -0.29267,-0.50464 l -0.90984,-32.243029 -7.61415,0.214858 c -0.23429,0.0066 -0.44651,-0.07041 -0.63666,-0.231158 -0.19016,-0.160682 -0.28854,-0.358181 -0.29515,-0.592496 z"
     style="font-size:60px;font-style:normal;font-variant:normal;font-weight:bold;font-stretch:normal;letter-spacing:6px;fill:#e9efd7;fill-opacity:1;font-family:Liberator;-inkscape-font-specification:Liberator Bold"
     id="path3883" /><path
     d="m 464.93674,102.8751 -0.004,-0.23434 -0.47372,-30.787376 c -0.0475,-0.546172 0.16914,-1.067144 0.64986,-1.562917 l 3.3169,-3.420577 c 0.21121,-0.237611 0.44781,-0.41217 0.7098,-0.523678 0.26198,-0.111424 0.47109,-0.168359 0.62733,-0.170805 l 0.20506,-0.0032 15.46692,-0.23799 c 0.0778,-0.02069 0.14599,-0.03151 0.2046,-0.03245 0.4882,-0.0075 0.95073,0.219816 1.38761,0.681857 l 3.44987,3.316456 c 0.21809,0.211551 0.38289,0.448302 0.49438,0.710252 0.11144,0.262025 0.15861,0.471285 0.14151,0.62778 l 0.003,0.205054 0.47372,30.787368 c 0.0207,0.0778 0.0317,0.15579 0.0329,0.2339 0.007,0.4687 -0.20087,0.91141 -0.62417,1.32812 l -3.34665,3.39173 c -0.21154,0.21813 -0.44333,0.38773 -0.69538,0.50881 -0.2521,0.12108 -0.45625,0.18282 -0.61246,0.18522 l -0.20505,0.003 -15.52551,0.23889 c -0.0391,6e-4 -0.0781,0.001 -0.11717,0.002 -0.50776,0.008 -0.98967,-0.2094 -1.44574,-0.65166 l -3.42013,-3.28761 c -0.21813,-0.21151 -0.3878,-0.44818 -0.50903,-0.71003 -0.12123,-0.26183 -0.1829,-0.4611 -0.185,-0.59781 z m 8.77359,-4.881653 c 0.001,0.09766 0.0622,0.233456 0.18207,0.407404 l 0.83329,0.836888 6.97183,-0.107276 0.83643,-0.86258 c 0.11535,-0.118967 0.17184,-0.256571 0.16945,-0.412812 L 482.37391,76.44159 c 0.0363,-0.17633 -0.0248,-0.341424 -0.18342,-0.495284 l -0.9811,-0.922514 c -0.119,-0.115338 -0.26637,-0.171671 -0.44211,-0.169 l -5.85868,0.09015 c -0.17578,0.0027 -0.30181,0.06328 -0.37811,0.18162 l -0.98155,0.952714 -0.1681,0.500693 z"
     style="font-size:60px;font-style:normal;font-variant:normal;font-weight:bold;font-stretch:normal;letter-spacing:6px;fill:#e9efd7;fill-opacity:1;font-family:Liberator;-inkscape-font-specification:Liberator Bold"
     id="path3885" /><path
     d="m 502.62499,106.83243 11.81053,-40.22007 -1.2e-4,-0.05859 c 0.25271,-0.566894 0.53532,-0.850688 0.84783,-0.851383 l 2.63671,-0.0055 1.8457,-0.0039 2.63672,-0.0055 c 0.37107,-7.33e-4 0.65486,0.281877 0.85138,0.847833 l 1.2e-4,0.05859 c 1.31791,4.469949 3.30945,11.169898 5.97462,20.099867 2.66512,8.93001 4.6664,15.620177 6.00386,20.070507 0.0196,0.039 0.0294,0.0781 0.0295,0.11713 2.5e-4,0.13672 -0.0873,0.28338 -0.26275,0.44 -0.21447,0.19576 -0.43887,0.29389 -0.67321,0.29438 l -6.85546,0.0143 c -0.21487,4.5e-4 -0.42501,-0.087 -0.63043,-0.26236 -0.20547,-0.17535 -0.35725,-0.37034 -0.45533,-0.58498 l -1.4457,-4.86028 -12.04099,0.0252 -1.42538,4.86627 c -0.0972,0.21505 -0.24818,0.41068 -0.45288,0.58688 -0.20472,0.17621 -0.4145,0.26454 -0.62933,0.26499 l -6.85545,0.0143 c -0.23438,4.9e-4 -0.45919,-0.0967 -0.67444,-0.29156 -0.17607,-0.13635 -0.26427,-0.28265 -0.26459,-0.4389 -8e-5,-0.0391 0.01,-0.0781 0.0291,-0.11725 z m 12.65847,-12.975689 7.23631,-0.01512 -3.59992,-12.297193 z"
     style="font-size:60px;font-style:normal;font-variant:normal;font-weight:bold;font-stretch:normal;letter-spacing:6px;fill:#e9efd7;fill-opacity:1;font-family:Liberator;-inkscape-font-specification:Liberator Bold"
     id="path3887" /><path
     d="m 546.60472,106.83798 0.43698,-40.251539 c 0.003,-0.23432 0.0877,-0.433602 0.25553,-0.597847 0.1678,-0.164162 0.35912,-0.245097 0.57396,-0.242807 l 19.10044,0.207359 c 0.0783,-0.01864 0.15653,-0.02756 0.23468,-0.02675 0.46869,0.0051 0.90579,0.224732 1.31128,0.658805 l 3.39032,3.464743 c 0.21247,0.217201 0.36601,0.467905 0.46061,0.752115 0.0946,0.284283 0.14099,0.504526 0.13932,0.660731 l -0.0322,0.263338 -0.16538,15.233477 c 0.0917,0.547923 -0.10924,1.06335 -0.60276,1.546283 l -3.46474,3.390322 -0.17705,0.115272 5.95922,15.124179 c 0.0191,0.0393 0.0284,0.0784 0.028,0.1175 -0.002,0.13671 -0.0812,0.28233 -0.23913,0.43688 -0.19745,0.19318 -0.41334,0.2885 -0.64767,0.28595 l -8.02687,-0.0871 c -0.21486,-0.002 -0.42385,-0.0925 -0.62699,-0.27049 -0.20318,-0.178 -0.35241,-0.37494 -0.44771,-0.59084 l -5.73026,-14.623609 -2.75375,-0.0299 -0.15806,14.559685 c -0.002,0.21484 -0.0875,0.40924 -0.25537,0.5832 -0.16792,0.17397 -0.36906,0.25968 -0.60341,0.25714 l -7.14802,-0.0776 c -0.1953,-0.002 -0.37988,-0.092 -0.55374,-0.2697 -0.17387,-0.17768 -0.25964,-0.37393 -0.2573,-0.58876 z m 9.07163,-23.281804 6.29846,0.06838 c 0.13669,0.0015 0.27414,-0.06536 0.41236,-0.200613 l 0.97692,-0.92695 c 0.0789,-0.07725 0.12862,-0.154837 0.14902,-0.232771 0.0204,-0.07788 0.0308,-0.136367 0.0312,-0.175453 l 9.5e-4,-0.08788 0.0611,-5.624669 c 0.0409,-0.175315 -0.0158,-0.341957 -0.17037,-0.499925 l -0.95656,-0.94794 c -0.0387,-0.03945 -0.0822,-0.07411 -0.13072,-0.103964 -0.0485,-0.02979 -0.0922,-0.0498 -0.13119,-0.06002 -0.039,-0.01016 -0.0731,-0.01541 -0.10237,-0.01576 -0.0293,-2.85e-4 -0.0537,-5.5e-4 -0.0732,-7.95e-4 l -0.0293,-3.18e-4 -6.23986,-0.06774 z"
     style="font-size:60px;font-style:normal;font-variant:normal;font-weight:bold;font-stretch:normal;letter-spacing:6px;fill:#e9efd7;fill-opacity:1;font-family:Liberator;-inkscape-font-specification:Liberator Bold"
     id="path3889" /><path
     d="m 585.36591,107.34297 0.90759,-40.243676 c 0.005,-0.234274 0.0928,-0.432547 0.26251,-0.594819 0.16971,-0.162188 0.37172,-0.240661 0.60604,-0.235419 l 21.82063,0.492109 c 0.21476,0.0049 0.40815,0.09228 0.58017,0.262171 0.17197,0.169977 0.25532,0.372103 0.25006,0.606378 l -0.16117,7.14662 c -0.005,0.234349 -0.0977,0.432511 -0.27715,0.594489 -0.1795,0.162042 -0.37664,0.240625 -0.5914,0.235749 l -13.8539,-0.312439 -0.17438,7.732408 10.60277,0.239119 c 0.23429,0.0053 0.43267,0.08793 0.59515,0.247856 0.16243,0.159978 0.24101,0.357112 0.23575,0.591404 l -0.16118,7.14662 c -0.005,0.234332 -0.0928,0.432605 -0.2625,0.594819 -0.16974,0.162246 -0.37175,0.240719 -0.60604,0.235418 l -10.60278,-0.239118 -0.17438,7.732409 13.8539,0.312439 c 0.21476,0.0049 0.40815,0.09224 0.58017,0.262173 0.17197,0.16994 0.25532,0.37207 0.25006,0.60638 l -0.16051,7.11733 c -0.005,0.23431 -0.0977,0.43248 -0.27714,0.59449 -0.17951,0.16201 -0.37665,0.24059 -0.59141,0.23574 l -21.82062,-0.4921 c -0.23432,-0.005 -0.43259,-0.0928 -0.59482,-0.2625 -0.16223,-0.16972 -0.24071,-0.37174 -0.23542,-0.60605 z"
     style="font-size:60px;font-style:normal;font-variant:normal;font-weight:bold;font-stretch:normal;letter-spacing:6px;fill:#e9efd7;fill-opacity:1;font-family:Liberator;-inkscape-font-specification:Liberator Bold"
     id="path3891" /><path
     d="m 620.25306,108.17213 13.27081,-39.762147 0.002,-0.05856 c 0.27323,-0.557292 0.56602,-0.83058 0.87835,-0.819867 l 2.63515,0.09074 1.84461,0.06352 2.63516,0.09074 c 0.37085,0.01281 0.64414,0.305594 0.81987,0.878345 l -0.002,0.05856 c 1.15387,4.515078 2.89951,11.283259 5.23693,20.304563 2.33737,9.021344 4.09311,15.780099 5.26723,20.276289 0.0181,0.0397 0.0265,0.0791 0.0252,0.11813 -0.005,0.13664 -0.0976,0.28001 -0.27864,0.43012 -0.22147,0.1878 -0.44931,0.27767 -0.68351,0.2696 l -6.85141,-0.23593 c -0.21474,-0.007 -0.42155,-0.10246 -0.62043,-0.28519 -0.19893,-0.18274 -0.34349,-0.38314 -0.43367,-0.60122 l -1.26732,-4.90981 -12.03389,-0.41439 -1.60206,4.811 c -0.10501,0.21135 -0.26301,0.40134 -0.474,0.56996 -0.21102,0.16862 -0.42388,0.24923 -0.63859,0.24184 l -6.8514,-0.23594 c -0.23424,-0.008 -0.45536,-0.11339 -0.66335,-0.31598 -0.17097,-0.14269 -0.25377,-0.29211 -0.24839,-0.44827 0.001,-0.039 0.0124,-0.0777 0.0333,-0.11611 z m 13.12368,-12.504971 7.23204,0.24904 -3.14863,-12.420406 z"
     style="font-size:60px;font-style:normal;font-variant:normal;font-weight:bold;font-stretch:normal;letter-spacing:6px;fill:#e9efd7;fill-opacity:1;font-family:Liberator;-inkscape-font-specification:Liberator Bold"
     id="path3893" /><path
     d="m 689.69671,110.89114 2.1561,-40.196118 c 0.0126,-0.233997 0.10129,-0.42972 0.26621,-0.58717 0.16491,-0.157366 0.36439,-0.229793 0.59843,-0.217281 l 8.92272,0.47861 c 0.44856,0.0241 0.71619,0.322068 0.80289,0.893897 l 0.0585,0.0031 6.65755,23.56425 0.11175,0.651452 1.27577,-23.784168 c 0.0125,-0.233998 0.10614,-0.42946 0.28084,-0.586386 0.17464,-0.156844 0.36924,-0.229533 0.5838,-0.218066 l 7.13818,0.382889 c 0.23401,0.01259 0.42947,0.106205 0.58639,0.280835 0.15685,0.174709 0.22901,0.379063 0.21649,0.613062 l -2.1561,40.196125 c -0.0115,0.21453 -0.10489,0.40512 -0.28005,0.57175 -0.17522,0.16664 -0.37984,0.24368 -0.61385,0.23113 l -9.47856,-0.50843 c -0.21455,-0.0115 -0.41951,-0.11052 -0.61485,-0.29703 -0.19539,-0.18651 -0.33608,-0.38965 -0.42207,-0.60942 l -6.21111,-20.401029 -1.07334,20.010299 c -0.0115,0.21453 -0.10974,0.40486 -0.29468,0.57097 -0.18495,0.16611 -0.38469,0.24342 -0.59922,0.23191 l -7.13817,-0.38289 c -0.23404,-0.0125 -0.42437,-0.11078 -0.57098,-0.29468 -0.14661,-0.18389 -0.21416,-0.38311 -0.20265,-0.59765 z"
     style="font-size:60px;font-style:normal;font-variant:normal;font-weight:bold;font-stretch:normal;letter-spacing:6px;fill:#e9efd7;fill-opacity:1;font-family:Liberator;-inkscape-font-specification:Liberator Bold"
     id="path3895" /><path
     d="m 729.65017,108.67399 0.015,-0.23389 0.0585,0.004 c 0.001,-0.0195 -0.007,-0.0445 -0.0245,-0.075 -0.0176,-0.0305 -0.0258,-0.0555 -0.0245,-0.075 l 2.27118,-35.317677 c 0.015,-0.23385 0.1156,-0.427992 0.30167,-0.582426 0.18607,-0.154352 0.38631,-0.224654 0.60071,-0.210908 l 7.13371,0.458748 c 0.23388,0.01508 0.42833,0.110766 0.58336,0.287053 0.15501,0.176368 0.225,0.381477 0.20997,0.615329 l -1.99104,30.961441 c -0.006,0.0975 0.0434,0.23766 0.1491,0.42059 l 0.76409,0.9005 6.95829,0.44747 0.90238,-0.79334 c 0.0622,-0.0547 0.11595,-0.12953 0.16122,-0.22449 0.0452,-0.0949 0.0782,-0.15153 0.099,-0.16978 l 1.99105,-30.961435 c 0.015,-0.233852 0.10582,-0.428621 0.27243,-0.584307 0.16656,-0.155606 0.36679,-0.225908 0.60071,-0.210908 l 7.07523,0.454988 c 0.23386,0.01508 0.42832,0.110765 0.58337,0.287053 0.15498,0.176367 0.22497,0.381476 0.20996,0.615329 l -2.28058,35.46386 c 0.0145,0.0792 0.0192,0.15781 0.0142,0.23577 -0.0301,0.46778 -0.27272,0.89254 -0.72781,1.27428 l -3.54729,3.11862 c -0.22822,0.20062 -0.47763,0.35093 -0.74826,0.45096 -0.27067,0.10002 -0.48396,0.14502 -0.63986,0.135 l -0.23389,-0.015 -15.49158,-1.05494 c -0.55077,0.0429 -1.05412,-0.195 -1.51005,-0.71361 l -3.14787,-3.54917 c -0.20061,-0.22819 -0.35093,-0.47761 -0.45095,-0.74826 -0.10003,-0.27064 -0.14566,-0.47419 -0.13688,-0.61063 z"
     style="font-size:60px;font-style:normal;font-variant:normal;font-weight:bold;font-stretch:normal;letter-spacing:6px;fill:#e9efd7;fill-opacity:1;font-family:Liberator;-inkscape-font-specification:Liberator Bold"
     id="path3897" /><path
     d="m 768.13316,115.64392 2.99015,-40.142691 c 0.0174,-0.233687 0.11019,-0.427525 0.27834,-0.581517 0.16815,-0.153909 0.36909,-0.222179 0.60282,-0.204811 l 8.91086,0.663752 c 0.44796,0.03341 0.70934,0.336867 0.78415,0.910373 l 0.0584,0.0044 6.1669,23.697388 0.0982,0.653633 1.76928,-23.752557 c 0.0174,-0.233687 0.11503,-0.427163 0.29294,-0.580428 0.17787,-0.153185 0.37394,-0.221818 0.58821,-0.205899 l 7.12869,0.531001 c 0.2337,0.01745 0.42717,0.115099 0.58043,0.292949 0.15319,0.177928 0.2211,0.383736 0.20372,0.617424 l -2.99015,40.1427 c -0.016,0.21424 -0.11327,0.40285 -0.29186,0.56582 -0.17864,0.16296 -0.38481,0.23573 -0.61851,0.21833 l -9.46596,-0.7051 c -0.21427,-0.016 -0.41712,-0.11921 -0.60856,-0.30974 -0.19147,-0.19053 -0.32791,-0.39654 -0.40932,-0.61805 l -5.78622,-20.525579 -1.48855,19.983699 c -0.016,0.21425 -0.11813,0.4025 -0.30647,0.56473 -0.18836,0.16224 -0.38966,0.23538 -0.6039,0.21942 l -7.12869,-0.531 c -0.23373,-0.0174 -0.42198,-0.11957 -0.56473,-0.30647 -0.14277,-0.1869 -0.20617,-0.38748 -0.19021,-0.60173 z"
     style="font-size:60px;font-style:normal;font-variant:normal;font-weight:bold;font-stretch:normal;letter-spacing:6px;fill:#e9efd7;fill-opacity:1;font-family:Liberator;-inkscape-font-specification:Liberator Bold"
     id="path3899" /><path
     d="m 810.44739,85.840824 0.59379,-7.064935 c 0.0196,-0.233511 0.12925,-0.430098 0.32887,-0.589763 0.19961,-0.159582 0.41619,-0.229579 0.64975,-0.209991 l 23.90984,2.009556 c 0.23352,0.01967 0.43539,0.124835 0.60559,0.315499 0.17014,0.190743 0.24541,0.40287 0.22582,0.636383 l -0.59379,7.064934 c -0.0197,0.233583 -0.12888,0.425305 -0.32765,0.575166 -0.19883,0.149923 -0.415,0.215055 -0.64852,0.195395 l -7.59043,-0.637954 -2.70149,32.142536 c -0.0569,0.21081 -0.16897,0.3778 -0.3361,0.50095 -0.16718,0.12315 -0.34806,0.17655 -0.54267,0.16019 l -7.06494,-0.59379 c -0.2141,-0.018 -0.39772,-0.10692 -0.55087,-0.2668 -0.15318,-0.15987 -0.23131,-0.33794 -0.23441,-0.5342 l 2.70149,-32.142534 -7.59042,-0.637954 c -0.23356,-0.0196 -0.43583,-0.119898 -0.60682,-0.300903 -0.17099,-0.180939 -0.24667,-0.3882 -0.22704,-0.621785 z"
     style="font-size:60px;font-style:normal;font-variant:normal;font-weight:bold;font-stretch:normal;letter-spacing:6px;fill:#e9efd7;fill-opacity:1;font-family:Liberator;-inkscape-font-specification:Liberator Bold"
     id="path3901" /><path
     d="m 845.30904,121.94653 3.62888,-39.913493 c 0.0212,-0.233372 0.12157,-0.420366 0.30106,-0.560983 0.17947,-0.140535 0.38592,-0.200212 0.61934,-0.179032 l 7.11907,0.647257 c 0.2334,0.02126 0.42083,0.116751 0.56231,0.286466 0.14145,0.169796 0.20156,0.37138 0.18036,0.604752 L 854.09117,122.745 c -0.0212,0.23341 -0.11716,0.42571 -0.28779,0.57689 -0.17065,0.15119 -0.37268,0.21617 -0.60608,0.19495 l -7.11907,-0.64726 c -0.23342,-0.0212 -0.42527,-0.12201 -0.57557,-0.30238 -0.15031,-0.18036 -0.21485,-0.38725 -0.19362,-0.62067 z"
     style="font-size:60px;font-style:normal;font-variant:normal;font-weight:bold;font-stretch:normal;letter-spacing:6px;fill:#e9efd7;fill-opacity:1;font-family:Liberator;-inkscape-font-specification:Liberator Bold"
     id="path3903" /></g><path
   style="fill:none;stroke:#000000;stroke-width:1px;stroke-linecap:butt;stroke-linejoin:miter;stroke-opacity:1"
   d="M 120.52233,135.88433 C 430.76927,91.563789 712.07321,105.12924 984.053,137.343"
   id="path3867"
   inkscape:connector-curvature="0"
   sodipodi:nodetypes="cc" /><path
   style="fill:none;stroke:#e9efd7;stroke-width:3.5;stroke-linejoin:round;stroke-miterlimit:4;stroke-opacity:1;stroke-dasharray:none"
   d="m 269.89757,40.531264 9.38702,2.546872 8.39506,-4.488073 -1.17868,-2.035052 -7.58513,4.097571 -8.58914,-2.983349 z"
   id="path3905"
   inkscape:connector-curvature="0"
   sodipodi:nodetypes="ccccccc" /><path
   style="fill:none;stroke:#e9efd7;stroke-width:3.5;stroke-linejoin:round;stroke-miterlimit:4;stroke-opacity:1;stroke-dasharray:none"
   d="m 390.86417,31.998974 9.23697,3.046501 8.62362,-4.03151 -1.06788,-2.095321 -7.79392,3.684995 -8.41682,-3.439572 z"
   id="path3905-1"
   inkscape:connector-curvature="0"
   sodipodi:nodetypes="ccccccc" /><path
   style="fill:none;stroke:#e9efd7;stroke-width:4;stroke-linecap:butt;stroke-linejoin:round;stroke-miterlimit:4;stroke-opacity:1;stroke-dasharray:none"
   d="m 819.67769,100.33759 0.23185,-2.930881 3.94096,0.368468 -0.75351,9.525363 -1.27916,-0.0332 0.51752,-6.68556 z"
   id="path3925"
   inkscape:connector-curvature="0" /></svg>