<?xml version="1.0" encoding="UTF-8" standalone="no"?>
<!-- Generator: Adobe Illustrator 17.0.0, SVG Export Plug-In . SVG Version: 6.00 Build 0)  -->

<svg
   xmlns:dc="http://purl.org/dc/elements/1.1/"
   xmlns:cc="http://creativecommons.org/ns#"
   xmlns:rdf="http://www.w3.org/1999/02/22-rdf-syntax-ns#"
   xmlns:svg="http://www.w3.org/2000/svg"
   xmlns="http://www.w3.org/2000/svg"
   xmlns:sodipodi="http://sodipodi.sourceforge.net/DTD/sodipodi-0.dtd"
   xmlns:inkscape="http://www.inkscape.org/namespaces/inkscape"
   version="1.1"
   id="Layer_1"
   x="0px"
   y="0px"
   width="875px"
   height="209px"
   viewBox="0 0 875 209"
   style="enable-background:new 0 0 875 209;"
   xml:space="preserve"
   inkscape:version="0.48.5 r10040"
   sodipodi:docname="when-where.svg"><metadata
   id="metadata55"><rdf:RDF><cc:Work
       rdf:about=""><dc:format>image/svg+xml</dc:format><dc:type
         rdf:resource="http://purl.org/dc/dcmitype/StillImage" /></cc:Work></rdf:RDF></metadata><defs
   id="defs53">
	

		
		
	</defs><sodipodi:namedview
   pagecolor="#ffffff"
   bordercolor="#666666"
   borderopacity="1"
   objecttolerance="10"
   gridtolerance="10"
   guidetolerance="10"
   inkscape:pageopacity="0"
   inkscape:pageshadow="2"
   inkscape:window-width="1680"
   inkscape:window-height="997"
   id="namedview51"
   showgrid="false"
   inkscape:zoom="1.7142857"
   inkscape:cx="330.37597"
   inkscape:cy="41.22445"
   inkscape:window-x="1276"
   inkscape:window-y="-4"
   inkscape:window-maximized="1"
   inkscape:current-layer="Layer_1" />
<style
   type="text/css"
   id="style3">
	.st0{fill:#62676C;}
	.st1{fill:#50555B;}
	.st2{fill:#393D42;}
	.st3{fill:none;stroke:#989CA3;stroke-width:3;stroke-linecap:round;stroke-linejoin:round;stroke-miterlimit:10;}
	.st4{fill:#FFF7E4;}
	.st5{fill:#FFFFFF;}
	.st6{fill:#E9EFD7;}
	.st7{fill:#E8ECD5;}
</style>
<g
   id="g9">
			<g
   id="g11">
				<path
   class="st6"
   d="m 830.8,182.5 c -58.5,-9 -117.1,-16.1 -176,-21.4 2.4,-28.1 4.9,-56.2 7.3,-84.3 60.8,5.4 121.4,12.8 181.8,22.1 -11.8,13.3 -23.4,26.7 -35,40.2 7.4,14.5 14.7,28.9 21.9,43.4 z"
   id="path13"
   inkscape:connector-curvature="0"
   style="fill:#e9efd7" />
				<path
   class="st5"
   d="M 835.4,185.9 C 774.5,176.4 713.3,169 651.9,163.5 c 2.6,-29.8 5.1,-59.7 7.7,-89.5 63.4,5.6 126.6,13.3 189.5,23.1 -12.5,14 -24.8,28.2 -37,42.4 7.8,15.4 15.6,30.9 23.3,46.4 z M 657.6,158.8 c 56.4,5.1 112.6,11.9 168.6,20.4 -6.7,-13.5 -13.6,-26.9 -20.5,-40.4 10.9,-12.8 21.9,-25.4 32.9,-38 C 780.8,92 722.8,85 664.5,79.7 c -2.3,26.4 -4.6,52.7 -6.9,79.1 z"
   id="path15"
   inkscape:connector-curvature="0"
   style="fill:#ffffff" />
			</g>
			<g
   id="g17">
				<path
   class="st6"
   d="m 16.3,99 c 60.4,-9.3 120.9,-16.6 181.8,-22.1 2.4,28.1 4.9,56.2 7.3,84.3 -58.9,5.3 -117.6,12.4 -176,21.4 6.9,-16.3 14,-32.5 21.1,-48.7 C 39.2,122.1 27.8,110.5 16.3,99 z"
   id="path19"
   inkscape:connector-curvature="0"
   style="fill:#e9efd7" />
				<path
   class="st5"
   d="M 208.3,163.5 C 147,169 86,176.4 25.1,185.9 32.4,168.7 39.8,151.5 47.3,134.4 35.2,121.9 23,109.5 10.7,97.2 73.8,87.4 137,79.6 200.6,74 c 2.6,29.9 5.1,59.7 7.7,89.5 z M 33.7,179.2 c 56.1,-8.5 112.4,-15.3 168.9,-20.5 -2.3,-26.4 -4.6,-52.7 -7,-79.1 -58.1,5.3 -116,12.3 -173.7,21 10.7,10.8 21.3,21.6 31.8,32.6 -6.8,15.3 -13.5,30.7 -20,46 z"
   id="path21"
   inkscape:connector-curvature="0"
   style="fill:#ffffff" />
			</g>
			<g
   id="g23">
				<path
   class="st6"
   d="m 764.5,140.8 c -218.9,-27.5 -439.7,-27.9 -658.7,-1.3 -4,-32 -8,-64 -11.9,-95.9 227,-27.7 456.1,-27.2 683,1.3 -4.2,32 -8.3,63.9 -12.4,95.9 z"
   id="path25"
   inkscape:connector-curvature="0"
   style="fill:#e9efd7" />
				<path
   class="st5"
   d="M 766.8,143.7 C 546.4,115.8 324,115.3 103.5,142.4 99.2,108.7 95,75 90.7,41.3 c 229,-28.2 460.2,-27.7 689.1,1.3 -4.3,33.7 -8.7,67.4 -13,101.1 z m -658.7,-7.1 c 217.4,-26.3 436.7,-25.8 654.1,1.3 3.9,-30.2 7.7,-60.5 11.6,-90.7 -225,-28.1 -451.9,-28.6 -676.9,-1.4 3.7,30.3 7.4,60.5 11.2,90.8 z"
   id="path27"
   inkscape:connector-curvature="0"
   style="fill:#ffffff" />
			</g>
		</g>
<g
   transform="translate(10.724453,-23.923779)"
   style="font-size:40px;font-style:normal;font-variant:normal;font-weight:normal;font-stretch:normal;line-height:125%;letter-spacing:0px;word-spacing:0px;fill:#62676c;fill-opacity:1;stroke:none;font-family:Andalus;-inkscape-font-specification:Andalus"
   id="text3032"><path
     d="m 239.06858,115.841 -2.35597,-30.671363 c -0.004,-0.05839 -0.01,-0.126544 -0.0157,-0.204476 -0.0389,-0.506284 0.12144,-0.969141 0.481,-1.388574 l 3.10121,-3.617279 c 0.19925,-0.211151 0.42584,-0.385267 0.67977,-0.522346 0.25391,-0.136995 0.45802,-0.221234 0.61232,-0.252717 l 0.20448,-0.01571 15.48174,-1.189203 c 0.60366,-0.04633 1.14666,0.137234 1.62899,0.550685 l 3.58807,3.103454 c 0.23064,0.197798 0.41449,0.423638 0.55155,0.677521 0.13701,0.253961 0.21151,0.458818 0.22351,0.61457 l 0.0157,0.204476 -0.0584,0.0045 c 0.0419,0.03599 0.0644,0.07345 0.0674,0.112356 l 0.48241,6.280328 c 0.0149,0.19477 -0.0581,0.391372 -0.21914,0.589805 -0.16108,0.198496 -0.34872,0.305955 -0.5629,0.322378 l -7.09823,0.545239 c -0.23371,0.01798 -0.44005,-0.05432 -0.61902,-0.2169 -0.17901,-0.162519 -0.27673,-0.350901 -0.29317,-0.565145 l -0.11892,-1.548173 c -0.0135,-0.175232 -0.0831,-0.316799 -0.20892,-0.4247 l -1.09866,-0.914636 c -0.14681,-0.125812 -0.28836,-0.183499 -0.42466,-0.173063 l -5.81296,0.446512 c -0.0584,0.0045 -0.18951,0.08315 -0.39324,0.235889 l -0.88767,1.067213 c -0.0734,0.06444 -0.12698,0.132215 -0.16068,0.203333 -0.0337,0.07118 -0.0491,0.126232 -0.0461,0.165147 l 0.007,0.08763 1.6402,21.353116 c 0.13628,0.24419 0.22465,0.37453 0.2651,0.391 l 0.88297,0.78429 6.95218,-0.53402 0.78205,-0.91219 c 0.10784,-0.1258 0.15579,-0.26661 0.14385,-0.42241 l -0.13912,-1.81107 c -0.0165,-0.2142 0.0517,-0.41043 0.20454,-0.58869 0.15279,-0.17822 0.34604,-0.27632 0.57975,-0.29428 l 7.09823,-0.54524 c 0.21419,-0.0164 0.41566,0.0562 0.60441,0.21802 0.1887,0.16182 0.29054,0.34009 0.30553,0.53481 l 0.52056,6.77691 c -0.051,0.35652 -0.24728,0.73399 -0.58883,1.13241 l -3.07424,3.58582 c -0.17981,0.2097 -0.39666,0.38307 -0.65056,0.52011 -0.25394,0.13704 -0.45805,0.22127 -0.61232,0.25271 l -0.2629,0.0202 -15.48174,1.1892 c -0.58422,0.0449 -1.11748,-0.13943 -1.59978,-0.55293 l -3.61504,-3.072 c -0.18873,-0.1618 -0.34187,-0.37041 -0.45943,-0.62583 -0.11757,-0.25541 -0.18308,-0.47075 -0.19654,-0.64602 z"
     style="font-size:60px;font-style:normal;font-variant:normal;font-weight:bold;font-stretch:normal;letter-spacing:6px;fill:#62676c;fill-opacity:1;font-family:Liberator;-inkscape-font-specification:Liberator Bold"
     id="path3855" /><path
     d="m 278.24467,117.79681 -2.52031,-39.998801 c -0.0147,-0.233869 0.0558,-0.434015 0.21168,-0.600437 0.15587,-0.166339 0.35075,-0.256899 0.58466,-0.271679 l 7.13429,-0.44953 c 0.2339,-0.0147 0.43374,0.05099 0.59952,0.197065 0.16576,0.146157 0.25601,0.33617 0.27076,0.570039 l 2.52031,39.998803 c 0.0147,0.23391 -0.0506,0.43862 -0.19614,0.61413 -0.14552,0.17552 -0.33522,0.27064 -0.56912,0.28538 l -7.13429,0.44953 c -0.23392,0.0147 -0.43893,-0.0555 -0.61506,-0.21076 -0.17613,-0.15525 -0.27156,-0.34983 -0.2863,-0.58374 z"
     style="font-size:60px;font-style:normal;font-variant:normal;font-weight:bold;font-stretch:normal;letter-spacing:6px;fill:#62676c;fill-opacity:1;font-family:Liberator;-inkscape-font-specification:Liberator Bold"
     id="path3857" /><path
     d="m 299.18412,116.43875 -1.97666,-40.205349 c -0.0115,-0.234051 0.0567,-0.437841 0.2046,-0.611371 0.14791,-0.173446 0.33891,-0.265944 0.57301,-0.277495 l 8.92476,-0.438779 c 0.44867,-0.02202 0.74544,0.246938 0.89031,0.806865 l 0.0585,-0.0029 9.03856,22.757445 0.17796,0.636561 -1.1696,-23.789626 c -0.0115,-0.23405 0.0616,-0.438079 0.21923,-0.61209 0.15765,-0.173924 0.34377,-0.266183 0.55837,-0.276776 l 7.13982,-0.351023 c 0.23406,-0.01147 0.43809,0.06161 0.61209,0.219232 0.17394,0.157706 0.26668,0.353583 0.27821,0.587633 l 1.97667,40.205341 c 0.0105,0.21459 -0.0628,0.41374 -0.21996,0.59746 -0.15721,0.18373 -0.35285,0.28134 -0.58691,0.29285 l -9.48074,0.46611 c -0.2146,0.0106 -0.42862,-0.0669 -0.64207,-0.23242 -0.21348,-0.1655 -0.37425,-0.35314 -0.48232,-0.56293 l -8.27014,-19.656677 0.98402,20.014887 c 0.0105,0.21459 -0.0677,0.41398 -0.23459,0.59818 -0.16694,0.1842 -0.35771,0.28158 -0.57228,0.29213 l -7.13981,0.35102 c -0.2341,0.0115 -0.43349,-0.0667 -0.59818,-0.23458 -0.1647,-0.1679 -0.25232,-0.35914 -0.26287,-0.57372 z"
     style="font-size:60px;font-style:normal;font-variant:normal;font-weight:bold;font-stretch:normal;letter-spacing:6px;fill:#62676c;fill-opacity:1;font-family:Liberator;-inkscape-font-specification:Liberator Bold"
     id="path3859" /><path
     d="m 338.82213,114.66457 -1.27416,-40.233733 c -0.007,-0.234216 0.0692,-0.436938 0.22989,-0.608167 0.16067,-0.171145 0.35814,-0.260448 0.5924,-0.267909 l 19.06271,-0.603698 c 0.60514,-0.01912 1.13933,0.188682 1.60257,0.623414 l 3.44481,3.261736 c 0.20137,0.189071 0.36481,0.413502 0.49031,0.673294 0.12545,0.259869 0.19066,0.467869 0.19563,0.624003 l 0.0367,0.233331 0.97463,30.775589 c 0.0563,0.54537 -0.15178,1.0698 -0.62434,1.57328 l -3.23245,3.44389 c -0.20796,0.22154 -0.44184,0.39504 -0.70165,0.52052 -0.25985,0.12547 -0.46785,0.19068 -0.624,0.19563 l -0.23426,0.007 -19.06271,0.60369 c -0.23426,0.007 -0.43698,-0.0692 -0.60817,-0.22988 -0.17119,-0.16068 -0.26049,-0.35815 -0.26791,-0.59241 z m 8.56171,-8.24388 6.85203,-0.217 0.82229,-0.87608 c 0.11155,-0.17939 0.16579,-0.31789 0.16271,-0.41551 l -0.67788,-21.405286 c -0.006,-0.175661 -0.0688,-0.320217 -0.1896,-0.433669 l -1.05641,-0.963138 c -0.0818,-0.114622 -0.23008,-0.16855 -0.4448,-0.161783 l -6.2371,0.197523 z"
     style="font-size:60px;font-style:normal;font-variant:normal;font-weight:bold;font-stretch:normal;letter-spacing:6px;fill:#62676c;fill-opacity:1;font-family:Liberator;-inkscape-font-specification:Liberator Bold"
     id="path3861" /><path
     d="m 402.90595,98.680852 -0.0204,-7.148408 c -6.7e-4,-0.234352 0.0818,-0.434782 0.24732,-0.601293 0.16554,-0.166464 0.36549,-0.250042 0.59987,-0.250732 l 8.32028,-0.02369 -0.0237,-8.320279 c -6.3e-4,-0.214811 0.0818,-0.410359 0.24735,-0.586644 0.1655,-0.176221 0.36545,-0.264681 0.59984,-0.265381 l 7.08981,-0.02019 c 0.23435,-6.35e-4 0.43968,0.08667 0.61598,0.261919 0.17626,0.175312 0.26471,0.370374 0.26534,0.585184 l 0.0237,8.320279 8.40817,-0.02394 c 0.19534,0.019 0.3665,0.111285 0.51349,0.276859 0.14692,0.165621 0.22071,0.355841 0.22135,0.570661 l 0.0204,7.148409 c 0.001,0.429701 -0.24223,0.684301 -0.73025,0.763801 l 1.6e-4,0.05859 -8.40817,0.02394 0.0239,8.408168 -0.0586,1.7e-4 c -0.0766,0.52757 -0.34933,0.79202 -0.81806,0.79335 l -7.08981,0.0202 c -0.19533,5.6e-4 -0.37621,-0.077 -0.54266,-0.23283 -0.16647,-0.15577 -0.26954,-0.34102 -0.3092,-0.55576 l -0.0239,-8.408169 -8.32028,0.02369 c -0.23438,6.82e-4 -0.43481,-0.08175 -0.60129,-0.247312 -0.16649,-0.165527 -0.25004,-0.35572 -0.25065,-0.570578 z"
     style="font-size:60px;font-style:normal;font-variant:normal;font-weight:bold;font-stretch:normal;letter-spacing:6px;fill:#62676c;fill-opacity:1;font-family:Liberator;-inkscape-font-specification:Liberator Bold"
     id="path3863" /><path
     d="m 468.84301,109.07065 0.006,-0.2343 0.0586,0.001 c 5e-4,-0.0195 -0.009,-0.0442 -0.0274,-0.074 -0.0188,-0.0298 -0.0279,-0.0544 -0.0274,-0.074 l 0.9012,-35.379146 c 0.006,-0.234258 0.0989,-0.43215 0.27888,-0.593677 0.17995,-0.161444 0.37731,-0.239451 0.59209,-0.234022 l 7.14612,0.18203 c 0.23428,0.006 0.4323,0.09409 0.59405,0.264236 0.16172,0.170231 0.2396,0.372475 0.23365,0.606733 l -0.79005,31.015326 c -0.002,0.0976 0.0526,0.2358 0.16528,0.4145 l 0.79842,0.87023 6.97039,0.17755 0.87097,-0.8277 c 0.06,-0.0571 0.11085,-0.13393 0.1524,-0.23057 0.0415,-0.0966 0.0723,-0.15445 0.0923,-0.17348 l 0.79004,-31.015334 c 0.006,-0.234258 0.0892,-0.432399 0.2496,-0.594423 0.1604,-0.161942 0.35776,-0.239949 0.59209,-0.234022 l 7.08754,0.180538 c 0.23427,0.006 0.43229,0.09409 0.59405,0.264236 0.1617,0.17023 0.23959,0.372474 0.23365,0.606733 l -0.90493,35.525582 c 0.0175,0.0786 0.0253,0.15695 0.0233,0.23505 -0.012,0.4686 -0.23793,0.90244 -0.67789,1.30152 l -3.42381,3.25371 c -0.22027,0.2093 -0.46368,0.36917 -0.73023,0.47961 -0.26659,0.11043 -0.47798,0.16366 -0.63415,0.15968 l -0.2343,-0.006 -15.52082,-0.45397 c -0.54869,0.0642 -1.06088,-0.15402 -1.53656,-0.65458 l -3.283,-3.42455 c -0.20931,-0.22024 -0.36918,-0.46365 -0.47961,-0.73022 -0.11044,-0.26657 -0.16391,-0.46819 -0.16043,-0.60487 z"
     style="font-size:60px;font-style:normal;font-variant:normal;font-weight:bold;font-stretch:normal;letter-spacing:6px;fill:#62676c;fill-opacity:1;font-family:Liberator;-inkscape-font-specification:Liberator Bold"
     id="path3865" /><path
     d="m 507.57232,114.58179 1.69079,-40.218378 c 0.01,-0.234127 0.0963,-0.430864 0.25939,-0.590211 0.16308,-0.159264 0.36171,-0.233995 0.59588,-0.224193 l 8.92766,0.375321 c 0.44881,0.01891 0.71987,0.313758 0.81317,0.884546 l 0.0586,0.0025 6.9298,23.485628 0.11928,0.650115 1.00045,-23.797339 c 0.01,-0.234128 0.10116,-0.43066 0.27403,-0.589596 0.17282,-0.158855 0.36656,-0.233791 0.58124,-0.224808 l 7.14213,0.300257 c 0.23414,0.0099 0.43067,0.101228 0.5896,0.27403 0.15886,0.172882 0.23339,0.376387 0.22357,0.610515 l -1.69078,40.218382 c -0.009,0.21465 -0.1002,0.40631 -0.27342,0.57496 -0.17328,0.16865 -0.37699,0.24806 -0.61113,0.23821 l -9.48381,-0.3987 c -0.21468,-0.009 -0.42076,-0.10566 -0.61825,-0.28989 -0.19754,-0.18424 -0.34057,-0.38574 -0.42909,-0.6045 l -6.44678,-20.327785 -0.84171,20.021375 c -0.009,0.21466 -0.10505,0.4061 -0.28805,0.57435 -0.18302,0.16824 -0.38185,0.24785 -0.59649,0.23883 l -7.14213,-0.30026 c -0.23417,-0.01 -0.42562,-0.10586 -0.57435,-0.28805 -0.14873,-0.18219 -0.21858,-0.38061 -0.20955,-0.59527 z"
     style="font-size:60px;font-style:normal;font-variant:normal;font-weight:bold;font-stretch:normal;letter-spacing:6px;fill:#62676c;fill-opacity:1;font-family:Liberator;-inkscape-font-specification:Liberator Bold"
     id="path3867" /><path
     d="m 547.206,116.41331 2.33198,-40.1863 c 0.0136,-0.23394 0.10804,-0.42899 0.2834,-0.585151 0.17535,-0.156077 0.38001,-0.227348 0.614,-0.213812 l 19.04024,1.104888 c 0.60442,0.03512 1.11787,0.289898 1.54033,0.764346 l 3.13906,3.556965 c 0.18364,0.206335 0.32633,0.444493 0.42808,0.714475 0.10168,0.270054 0.14801,0.483056 0.13899,0.639009 l 0.0157,0.235678 -1.78377,30.739302 c 0.007,0.54822 -0.24693,1.05192 -0.76265,1.51109 l -3.52772,3.14075 c -0.22695,0.20204 -0.47542,0.35392 -0.74542,0.45563 -0.27004,0.10172 -0.48304,0.14805 -0.63901,0.139 l -0.23398,-0.0136 -19.04023,-1.10489 c -0.23399,-0.0136 -0.42904,-0.10804 -0.58515,-0.28339 -0.15613,-0.17536 -0.2274,-0.38003 -0.21382,-0.61401 z m 9.2652,-7.4445 6.84395,0.39715 0.8974,-0.79897 c 0.12716,-0.16869 0.19357,-0.30178 0.19925,-0.39928 l 1.24067,-21.38005 c 0.0102,-0.175456 -0.0399,-0.325088 -0.15003,-0.448898 l -0.96597,-1.053824 c -0.0712,-0.121485 -0.21406,-0.188466 -0.42853,-0.200944 l -6.22975,-0.361507 z"
     style="font-size:60px;font-style:normal;font-variant:normal;font-weight:bold;font-stretch:normal;letter-spacing:6px;fill:#62676c;fill-opacity:1;font-family:Liberator;-inkscape-font-specification:Liberator Bold"
     id="path3869" /><path
     d="m 585.22872,118.72262 2.93104,-40.147051 c 0.0171,-0.233712 0.11442,-0.427331 0.29209,-0.580859 0.17766,-0.153446 0.38337,-0.221656 0.61713,-0.204632 l 21.76823,1.589244 c 0.21424,0.01568 0.40299,0.112692 0.56625,0.291027 0.1632,0.178413 0.23628,0.384477 0.21924,0.61819 l -0.5205,7.129463 c -0.0171,0.233784 -0.11933,0.427048 -0.30671,0.579793 -0.18743,0.152806 -0.38826,0.221372 -0.60251,0.205698 l -13.82064,-1.00901 -0.56317,7.713844 10.57732,0.772224 c 0.23373,0.01709 0.4277,0.109583 0.58193,0.277483 0.15417,0.167947 0.22274,0.368785 0.2057,0.602515 l -0.52051,7.129461 c -0.0171,0.23377 -0.11445,0.42739 -0.29209,0.58086 -0.17769,0.1535 -0.3834,0.22171 -0.61713,0.20463 l -10.57731,-0.77222 -0.56317,7.71384 13.82064,1.00901 c 0.21424,0.0156 0.40299,0.11266 0.56625,0.29103 0.1632,0.17838 0.23628,0.38444 0.21924,0.61819 l -0.51837,7.10024 c -0.0171,0.23376 -0.11933,0.42702 -0.30671,0.5798 -0.18743,0.15277 -0.38826,0.22134 -0.60251,0.2057 l -21.76824,-1.58925 c -0.23375,-0.0171 -0.42737,-0.11443 -0.58086,-0.29209 -0.15349,-0.17767 -0.2217,-0.38337 -0.20463,-0.61713 z"
     style="font-size:60px;font-style:normal;font-variant:normal;font-weight:bold;font-stretch:normal;letter-spacing:6px;fill:#62676c;fill-opacity:1;font-family:Liberator;-inkscape-font-specification:Liberator Bold"
     id="path3871" /></g><path
   style="fill:none;stroke:none;stroke-width:1px;stroke-linecap:butt;stroke-linejoin:miter;stroke-opacity:1"
   d="m 108.09896,136.48437 c 227.53816,-33.01288 443.98589,-27.20929 653.95313,1.27605"
   id="path3847"
   inkscape:connector-curvature="0"
   sodipodi:nodetypes="cc" /><path
   style="fill:#62676c;fill-opacity:1;stroke:#62676c;stroke-width:1.79999995;stroke-linecap:butt;stroke-linejoin:round;stroke-miterlimit:4;stroke-opacity:1;stroke-dasharray:none"
   d="m 282.91667,51.682292 6.85416,-7.765626 7.94792,6.307292 2.4427,-2.953125 -10.79166,-8.859375 -9.47916,10.901042 z"
   id="path3852"
   inkscape:connector-curvature="0"
   sodipodi:nodetypes="ccccccc" /></svg>